<svg width="1000" height="350" viewBox="0 0 1000 350" fill="none" xmlns="http://www.w3.org/2000/svg">
<rect width="1000" height="350" fill="#0D1117"/>
<path d="M111.311 264.993C90.2284 264.988 72.5951 249.623 69.4828 229.004C69.1703 226.938 69.0141 223.82 69.0141 219.648C69.0141 190.43 69.0094 161.214 69 132C69 127.522 69.0969 124.398 69.2906 122.63C71.4139 103.06 86.8864 87.4374 106.516 85.2859C108.241 85.0953 111.363 85 115.882 85C145.099 85.0062 174.314 85.0078 203.528 85.0047C207.674 85.0047 210.793 85.1578 212.883 85.464C231.323 88.1593 245.952 102.723 248.567 121.238C248.852 123.25 248.994 126.367 248.994 130.589C249 155.86 249.002 181.132 248.998 206.406C248.998 210.54 248.833 213.657 248.502 215.757C247.239 223.713 243.941 230.669 238.607 236.625C238.547 236.694 236.348 238.911 232.007 243.277C228.77 246.533 225.52 249.781 222.258 253.022C215.893 259.34 208.392 263.171 199.755 264.515C197.708 264.83 194.594 264.99 190.413 264.993C164.046 265.002 137.679 265.002 111.311 264.993ZM83.671 228.277C86.3943 241.87 97.9717 250.922 111.668 250.931C136.522 250.947 161.387 250.945 186.26 250.926C186.429 250.926 186.515 250.842 186.518 250.673C186.533 245.252 186.538 239.831 186.532 234.413C186.529 230.138 186.723 227.024 187.113 225.071C189.255 214.393 197.683 205.647 208.398 203.233C210.385 202.786 213.494 202.558 217.725 202.549C223.35 202.536 229 202.53 234.674 202.53C234.846 202.53 234.932 202.444 234.932 202.272C234.938 177.517 234.943 152.763 234.946 128.011C234.946 111.685 222.694 99.0198 206.345 99.0291C175.725 99.0479 145.103 99.0604 114.48 99.0666C110.293 99.0698 107.184 99.2948 105.152 99.7416C91.9533 102.662 83.0523 114.179 83.0663 127.659C83.0851 144.131 83.082 174.559 83.057 218.945C83.057 223.116 83.2616 226.227 83.671 228.277ZM200.865 249.89C205.543 248.69 209.377 245.972 212.78 242.62C220.924 234.599 226.211 229.291 228.642 226.698C231.007 224.173 232.743 220.884 233.849 216.831C233.893 216.675 233.834 216.596 233.671 216.596C227.865 216.584 222.058 216.579 216.249 216.582C213.971 216.585 212.154 216.79 210.798 217.196C205.826 218.687 202.617 221.923 201.17 226.904C200.764 228.294 200.564 230.194 200.57 232.604C200.589 238.285 200.595 243.975 200.589 249.675C200.589 249.865 200.681 249.937 200.865 249.89Z" fill="url(#paint0_linear_54_52)"/>
<path d="M200.575 126.492H117.433C113.615 126.492 110.52 129.587 110.52 133.406V133.631C110.52 137.449 113.615 140.544 117.433 140.544H200.575C204.393 140.544 207.489 137.449 207.489 133.631V133.406C207.489 129.587 204.393 126.492 200.575 126.492Z" fill="url(#paint1_linear_54_52)"/>
<path d="M200.575 167.98H117.433C113.615 167.98 110.52 171.075 110.52 174.893V175.109C110.52 178.927 113.615 182.022 117.433 182.022H200.575C204.393 182.022 207.489 178.927 207.489 175.109V174.893C207.489 171.075 204.393 167.98 200.575 167.98Z" fill="url(#paint2_linear_54_52)"/>
<path d="M159.154 209.467H117.372C113.598 209.467 110.538 212.527 110.538 216.301V216.667C110.538 220.441 113.598 223.501 117.372 223.501H159.154C162.928 223.501 165.988 220.441 165.988 216.667V216.301C165.988 212.527 162.928 209.467 159.154 209.467Z" fill="url(#paint3_linear_54_52)"/>
<path d="M321.44 191H306.8L292.8 134.6H302.72L314 181.08H315.28L327.2 134.6H337.76L349.12 181.08H350.4L362.64 134.6H372.4L357.44 191H342.64L332.96 150.36H331.68L321.44 191ZM378.772 191V134.6H387.972V154.84C389.305 152.867 391.039 151.347 393.172 150.28C395.305 149.16 397.572 148.6 399.972 148.6C402.959 148.6 405.652 149.347 408.052 150.84C410.452 152.333 412.345 154.387 413.732 157C415.119 159.613 415.812 162.573 415.812 165.88V191H406.612V166.92C406.612 163.933 405.759 161.507 404.052 159.64C402.345 157.773 400.159 156.84 397.492 156.84C394.719 156.84 392.425 157.8 390.612 159.72C388.852 161.587 387.972 163.987 387.972 166.92V191H378.772ZM435.394 191H426.194V149.4H435.394V191ZM430.834 143.48C429.127 143.48 427.74 142.973 426.674 141.96C425.607 140.893 425.074 139.533 425.074 137.88C425.074 136.227 425.607 134.867 426.674 133.8C427.794 132.733 429.18 132.2 430.834 132.2C432.487 132.2 433.847 132.733 434.914 133.8C435.98 134.867 436.514 136.227 436.514 137.88C436.514 139.533 435.98 140.893 434.914 141.96C433.847 142.973 432.487 143.48 430.834 143.48ZM470.984 183L470.184 191H462.424C457.891 191 454.451 189.933 452.104 187.8C449.758 185.613 448.584 182.467 448.584 178.36V157.4H441.784V149.4H448.584L450.904 137.4H457.784V149.4H470.184V157.4H457.784V178.36C457.784 181.453 459.331 183 462.424 183H470.984ZM518.234 169.72C518.234 170.52 518.181 171.507 518.074 172.68H484.634C485.061 175.933 486.394 178.547 488.634 180.52C490.874 182.44 493.728 183.4 497.194 183.4C499.541 183.4 501.648 182.947 503.514 182.04C505.434 181.133 506.901 179.907 507.914 178.36L516.554 179.8C515.061 183.64 512.474 186.6 508.794 188.68C505.168 190.76 501.114 191.8 496.634 191.8C492.474 191.8 488.741 190.893 485.434 189.08C482.181 187.213 479.621 184.653 477.754 181.4C475.941 178.093 475.034 174.36 475.034 170.2C475.034 166.04 475.941 162.333 477.754 159.08C479.621 155.773 482.181 153.213 485.434 151.4C488.741 149.533 492.474 148.6 496.634 148.6C500.794 148.6 504.501 149.533 507.754 151.4C511.061 153.213 513.621 155.747 515.434 159C517.301 162.2 518.234 165.773 518.234 169.72ZM496.634 156.6C493.861 156.6 491.434 157.4 489.354 159C487.328 160.6 485.941 162.76 485.194 165.48H508.234C507.434 162.813 505.994 160.68 503.914 159.08C501.888 157.427 499.461 156.6 496.634 156.6ZM535.003 191H525.803V134.6H535.003V191ZM555.394 191H546.194V149.4H555.394V191ZM550.834 143.48C549.127 143.48 547.74 142.973 546.674 141.96C545.607 140.893 545.074 139.533 545.074 137.88C545.074 136.227 545.607 134.867 546.674 133.8C547.794 132.733 549.18 132.2 550.834 132.2C552.487 132.2 553.847 132.733 554.914 133.8C555.98 134.867 556.514 136.227 556.514 137.88C556.514 139.533 555.98 140.893 554.914 141.96C553.847 142.973 552.487 143.48 550.834 143.48ZM581.144 191.8C576.451 191.8 572.531 190.707 569.384 188.52C566.291 186.28 564.291 183.213 563.384 179.32L572.264 177.8C572.958 179.773 574.131 181.293 575.784 182.36C577.491 183.427 579.518 183.96 581.864 183.96C583.891 183.96 585.598 183.587 586.984 182.84C588.371 182.093 589.064 180.947 589.064 179.4C589.064 177.96 588.344 176.867 586.904 176.12C585.464 175.32 583.251 174.52 580.264 173.72C577.278 172.867 574.798 172.013 572.824 171.16C570.851 170.307 569.144 169.053 567.704 167.4C566.318 165.747 565.624 163.56 565.624 160.84C565.624 156.893 567.144 153.88 570.184 151.8C573.224 149.667 577.011 148.6 581.544 148.6C585.651 148.6 589.198 149.667 592.184 151.8C595.171 153.88 597.251 156.76 598.424 160.44L589.864 161.88C589.118 160.12 588.024 158.787 586.584 157.88C585.198 156.92 583.544 156.44 581.624 156.44C579.811 156.44 578.264 156.813 576.984 157.56C575.758 158.307 575.144 159.32 575.144 160.6C575.144 162.093 575.891 163.267 577.384 164.12C578.878 164.92 581.171 165.747 584.264 166.6C587.144 167.4 589.544 168.253 591.464 169.16C593.438 170.013 595.091 171.267 596.424 172.92C597.811 174.52 598.504 176.6 598.504 179.16C598.504 181.507 597.864 183.64 596.584 185.56C595.304 187.427 593.358 188.947 590.744 190.12C588.184 191.24 584.984 191.8 581.144 191.8ZM631.688 183L630.888 191H623.128C618.594 191 615.154 189.933 612.808 187.8C610.461 185.613 609.288 182.467 609.288 178.36V157.4H602.488V149.4H609.288L611.608 137.4H618.488V149.4H630.888V157.4H618.488V178.36C618.488 181.453 620.034 183 623.128 183H631.688ZM671.959 162.04C674.999 162.947 677.372 164.573 679.079 166.92C680.839 169.213 681.719 171.987 681.719 175.24C681.719 178.333 680.945 181.08 679.399 183.48C677.852 185.827 675.692 187.667 672.919 189C670.145 190.333 666.945 191 663.319 191H639.719V134.6H661.719C665.292 134.6 668.465 135.267 671.239 136.6C674.012 137.88 676.172 139.693 677.719 142.04C679.265 144.387 680.039 147.027 680.039 149.96C680.039 152.787 679.319 155.267 677.879 157.4C676.439 159.533 674.465 161.08 671.959 162.04ZM649.319 143V158.44H661.719C664.279 158.44 666.359 157.747 667.959 156.36C669.559 154.92 670.359 153.053 670.359 150.76C670.359 148.467 669.559 146.6 667.959 145.16C666.359 143.72 664.279 143 661.719 143H649.319ZM663.319 182.6C665.825 182.6 667.879 181.88 669.479 180.44C671.079 178.947 671.879 177.027 671.879 174.68C671.879 172.387 671.079 170.52 669.479 169.08C667.879 167.587 665.825 166.84 663.319 166.84H649.319V182.6H663.319ZM720.081 149.4H729.441L712.401 196.2C710.961 200.147 709.095 203 706.801 204.76C704.561 206.52 701.548 207.4 697.761 207.4H691.441L690.641 199H698.401C699.948 199 701.121 198.653 701.921 197.96C702.775 197.32 703.495 196.173 704.081 194.52L704.561 193.24L686.081 149.4H695.921L708.161 179.4H709.441L720.081 149.4ZM760.663 191H751.062V143.4H731.863V134.6H779.863V143.4H760.663V191ZM795.472 191H786.272V149.4H795.472V191ZM790.912 143.48C789.205 143.48 787.819 142.973 786.752 141.96C785.685 140.893 785.152 139.533 785.152 137.88C785.152 136.227 785.685 134.867 786.752 133.8C787.872 132.733 789.259 132.2 790.912 132.2C792.565 132.2 793.925 132.733 794.992 133.8C796.059 134.867 796.592 136.227 796.592 137.88C796.592 139.533 796.059 140.893 794.992 141.96C793.925 142.973 792.565 143.48 790.912 143.48ZM806.263 191V149.4H813.143L814.823 155.32C815.943 153.347 817.489 151.747 819.463 150.52C821.436 149.24 823.809 148.6 826.583 148.6C829.356 148.6 831.836 149.267 834.023 150.6C836.209 151.933 837.836 153.773 838.903 156.12C839.916 154.04 841.516 152.28 843.703 150.84C845.943 149.347 848.583 148.6 851.623 148.6C854.503 148.6 857.063 149.347 859.303 150.84C861.596 152.28 863.356 154.307 864.583 156.92C865.863 159.48 866.503 162.413 866.503 165.72V191H857.303V166.6C857.303 163.72 856.556 161.373 855.063 159.56C853.569 157.747 851.623 156.84 849.223 156.84C846.823 156.84 844.849 157.773 843.302 159.64C841.756 161.453 840.983 163.773 840.983 166.6V191H831.783V166.6C831.783 163.72 831.036 161.373 829.543 159.56C828.049 157.747 826.103 156.84 823.703 156.84C821.303 156.84 819.329 157.773 817.783 159.64C816.236 161.453 815.463 163.773 815.463 166.6V191H806.263ZM917.297 169.72C917.297 170.52 917.244 171.507 917.137 172.68H883.697C884.124 175.933 885.457 178.547 887.697 180.52C889.937 182.44 892.79 183.4 896.257 183.4C898.604 183.4 900.71 182.947 902.577 182.04C904.497 181.133 905.964 179.907 906.977 178.36L915.617 179.8C914.124 183.64 911.537 186.6 907.857 188.68C904.23 190.76 900.177 191.8 895.697 191.8C891.537 191.8 887.804 190.893 884.497 189.08C881.244 187.213 878.684 184.653 876.817 181.4C875.004 178.093 874.097 174.36 874.097 170.2C874.097 166.04 875.004 162.333 876.817 159.08C878.684 155.773 881.244 153.213 884.497 151.4C887.804 149.533 891.537 148.6 895.697 148.6C899.857 148.6 903.564 149.533 906.817 151.4C910.124 153.213 912.684 155.747 914.497 159C916.364 162.2 917.297 165.773 917.297 169.72ZM895.697 156.6C892.924 156.6 890.497 157.4 888.417 159C886.39 160.6 885.004 162.76 884.257 165.48H907.297C906.497 162.813 905.057 160.68 902.977 159.08C900.95 157.427 898.524 156.6 895.697 156.6Z" fill="white"/>
<path d="M308 245.4C306.213 245.4 304.653 245.027 303.32 244.28C302.013 243.533 300.947 242.6 300.12 241.48L299.16 245H297V216.8H300.2V227.88C301.053 226.787 302.12 225.88 303.4 225.16C304.707 224.44 306.24 224.08 308 224.08C309.92 224.08 311.64 224.533 313.16 225.44C314.707 226.347 315.907 227.613 316.76 229.24C317.613 230.84 318.04 232.667 318.04 234.72C318.04 236.773 317.613 238.613 316.76 240.24C315.907 241.867 314.707 243.133 313.16 244.04C311.64 244.947 309.92 245.4 308 245.4ZM307.44 242.48C308.853 242.48 310.107 242.16 311.2 241.52C312.32 240.853 313.173 239.933 313.76 238.76C314.373 237.587 314.68 236.24 314.68 234.72C314.68 233.227 314.373 231.893 313.76 230.72C313.173 229.547 312.32 228.64 311.2 228C310.107 227.333 308.853 227 307.44 227C306.027 227 304.773 227.333 303.68 228C302.587 228.64 301.733 229.547 301.12 230.72C300.507 231.893 300.2 233.227 300.2 234.72C300.2 236.24 300.507 237.587 301.12 238.76C301.733 239.933 302.587 240.853 303.68 241.52C304.773 242.16 306.027 242.48 307.44 242.48ZM341.985 234.68C341.985 235.027 341.972 235.36 341.945 235.68H324.585C324.772 237.733 325.532 239.373 326.865 240.6C328.198 241.827 329.892 242.44 331.945 242.44C333.385 242.44 334.665 242.147 335.785 241.56C336.905 240.973 337.732 240.2 338.265 239.24L341.265 239.72C340.438 241.56 339.172 242.973 337.465 243.96C335.758 244.92 333.865 245.4 331.785 245.4C329.732 245.4 327.905 244.947 326.305 244.04C324.705 243.133 323.452 241.867 322.545 240.24C321.665 238.613 321.225 236.773 321.225 234.72C321.225 232.667 321.665 230.84 322.545 229.24C323.425 227.613 324.652 226.347 326.225 225.44C327.798 224.533 329.585 224.08 331.585 224.08C333.585 224.08 335.372 224.533 336.945 225.44C338.518 226.347 339.745 227.613 340.625 229.24C341.532 230.84 341.985 232.653 341.985 234.68ZM331.585 226.96C329.825 226.96 328.318 227.507 327.065 228.6C325.838 229.667 325.052 231.107 324.705 232.92H338.505C338.185 231.133 337.398 229.693 336.145 228.6C334.918 227.507 333.398 226.96 331.585 226.96ZM353.14 245.4C350.926 245.4 349.06 244.907 347.54 243.92C346.02 242.907 345.033 241.52 344.58 239.76L347.58 239.28C348.006 240.32 348.7 241.133 349.66 241.72C350.62 242.28 351.806 242.56 353.22 242.56C354.5 242.56 355.566 242.32 356.42 241.84C357.3 241.333 357.74 240.587 357.74 239.6C357.74 238.72 357.34 238.053 356.54 237.6C355.74 237.12 354.42 236.6 352.58 236.04C351.113 235.613 349.9 235.187 348.94 234.76C347.98 234.307 347.166 233.68 346.5 232.88C345.833 232.08 345.5 231.053 345.5 229.8C345.5 228.067 346.18 226.68 347.54 225.64C348.926 224.6 350.673 224.08 352.78 224.08C354.7 224.08 356.366 224.56 357.78 225.52C359.193 226.453 360.206 227.747 360.82 229.4L357.86 229.88C356.82 227.907 355.153 226.92 352.86 226.92C351.713 226.92 350.74 227.16 349.94 227.64C349.166 228.093 348.78 228.773 348.78 229.68C348.78 230.56 349.18 231.253 349.98 231.76C350.806 232.24 352.06 232.72 353.74 233.2C355.286 233.653 356.553 234.12 357.54 234.6C358.553 235.08 359.38 235.72 360.02 236.52C360.686 237.293 361.02 238.28 361.02 239.48C361.02 240.6 360.7 241.613 360.06 242.52C359.42 243.4 358.5 244.107 357.3 244.64C356.126 245.147 354.74 245.4 353.14 245.4ZM377.068 242.12L376.788 245H373.388C371.361 245 369.801 244.48 368.708 243.44C367.641 242.4 367.108 240.907 367.108 238.96V227.36H363.428V224.48H367.108L368.148 218.48H370.308V224.48H376.788V227.36H370.308V238.96C370.308 241.067 371.335 242.12 373.388 242.12H377.068ZM394.067 245H390.867V224.48H394.067V245ZM392.507 220.84C391.867 220.84 391.334 220.64 390.907 220.24C390.507 219.84 390.307 219.333 390.307 218.72C390.307 218.107 390.507 217.6 390.907 217.2C391.334 216.773 391.867 216.56 392.507 216.56C393.121 216.56 393.627 216.773 394.027 217.2C394.427 217.6 394.627 218.107 394.627 218.72C394.627 219.333 394.427 219.84 394.027 220.24C393.627 220.64 393.121 220.84 392.507 220.84ZM399.886 245V224.48H402.046L402.886 227.6C403.579 226.48 404.459 225.613 405.526 225C406.619 224.387 407.846 224.08 409.206 224.08C410.699 224.08 412.019 224.44 413.166 225.16C414.339 225.853 415.246 226.84 415.886 228.12C416.553 229.4 416.886 230.84 416.886 232.44V245H413.686V232.6C413.686 230.947 413.219 229.6 412.286 228.56C411.353 227.52 410.139 227 408.646 227C407.633 227 406.699 227.24 405.846 227.72C404.993 228.2 404.313 228.867 403.806 229.72C403.326 230.573 403.086 231.533 403.086 232.6V245H399.886ZM436.758 224.48H443.238V227.36H436.758V245H433.558V227.36H429.878V224.48H433.558V222.84C433.558 220.893 434.091 219.4 435.158 218.36C436.251 217.32 437.811 216.8 439.838 216.8H443.238L443.518 219.68H439.838C437.785 219.68 436.758 220.733 436.758 222.84V224.48ZM453.887 245.4C452.42 245.4 451.113 245.053 449.967 244.36C448.82 243.64 447.927 242.64 447.287 241.36C446.647 240.08 446.327 238.64 446.327 237.04V224.48H449.527V236.88C449.527 238.533 449.98 239.88 450.887 240.92C451.82 241.96 453.02 242.48 454.487 242.48C455.473 242.48 456.38 242.24 457.207 241.76C458.06 241.28 458.727 240.613 459.207 239.76C459.687 238.907 459.927 237.947 459.927 236.88V224.48H463.127V245H460.967L460.127 241.88C459.433 243 458.553 243.867 457.487 244.48C456.42 245.093 455.22 245.4 453.887 245.4ZM468.714 245V224.48H470.874L471.714 227.6C472.407 226.48 473.287 225.613 474.354 225C475.447 224.387 476.674 224.08 478.034 224.08C479.527 224.08 480.847 224.44 481.994 225.16C483.167 225.853 484.074 226.84 484.714 228.12C485.381 229.4 485.714 230.84 485.714 232.44V245H482.514V232.6C482.514 230.947 482.047 229.6 481.114 228.56C480.181 227.52 478.967 227 477.474 227C476.461 227 475.527 227.24 474.674 227.72C473.821 228.2 473.141 228.867 472.634 229.72C472.154 230.573 471.914 231.533 471.914 232.6V245H468.714ZM500.457 245.4C498.404 245.4 496.577 244.947 494.977 244.04C493.377 243.133 492.124 241.867 491.217 240.24C490.337 238.613 489.897 236.773 489.897 234.72C489.897 232.667 490.337 230.84 491.217 229.24C492.124 227.613 493.377 226.347 494.977 225.44C496.604 224.533 498.43 224.08 500.457 224.08C502.564 224.08 504.47 224.587 506.177 225.6C507.884 226.587 509.137 228.013 509.937 229.88L506.897 230.4C506.39 229.387 505.577 228.573 504.457 227.96C503.337 227.32 502.07 227 500.657 227C499.217 227 497.937 227.32 496.817 227.96C495.697 228.6 494.817 229.507 494.177 230.68C493.564 231.853 493.257 233.2 493.257 234.72C493.257 237.04 493.937 238.907 495.297 240.32C496.657 241.733 498.444 242.44 500.657 242.44C502.15 242.44 503.47 242.107 504.617 241.44C505.79 240.747 506.617 239.867 507.097 238.8L510.097 239.32C509.324 241.267 508.057 242.773 506.297 243.84C504.564 244.88 502.617 245.4 500.457 245.4ZM525.154 242.12L524.874 245H521.474C519.447 245 517.887 244.48 516.794 243.44C515.727 242.4 515.194 240.907 515.194 238.96V227.36H511.514V224.48H515.194L516.234 218.48H518.394V224.48H524.874V227.36H518.394V238.96C518.394 241.067 519.421 242.12 521.474 242.12H525.154ZM532.544 245H529.344V224.48H532.544V245ZM530.984 220.84C530.344 220.84 529.81 220.64 529.384 220.24C528.984 219.84 528.784 219.333 528.784 218.72C528.784 218.107 528.984 217.6 529.384 217.2C529.81 216.773 530.344 216.56 530.984 216.56C531.597 216.56 532.104 216.773 532.504 217.2C532.904 217.6 533.104 218.107 533.104 218.72C533.104 219.333 532.904 219.84 532.504 220.24C532.104 220.64 531.597 220.84 530.984 220.84ZM547.843 245.4C545.789 245.4 543.949 244.947 542.323 244.04C540.696 243.133 539.429 241.867 538.523 240.24C537.616 238.613 537.163 236.773 537.163 234.72C537.163 232.667 537.616 230.84 538.523 229.24C539.429 227.613 540.696 226.347 542.323 225.44C543.949 224.533 545.789 224.08 547.843 224.08C549.896 224.08 551.736 224.533 553.363 225.44C555.016 226.347 556.296 227.613 557.203 229.24C558.109 230.84 558.563 232.667 558.563 234.72C558.563 236.773 558.109 238.613 557.203 240.24C556.296 241.867 555.029 243.133 553.403 244.04C551.776 244.947 549.923 245.4 547.843 245.4ZM547.843 242.44C550.029 242.44 551.803 241.733 553.163 240.32C554.523 238.88 555.203 237.013 555.203 234.72C555.203 233.227 554.896 231.893 554.283 230.72C553.669 229.547 552.803 228.64 551.683 228C550.563 227.333 549.283 227 547.843 227C546.403 227 545.123 227.333 544.003 228C542.909 228.64 542.056 229.547 541.442 230.72C540.829 231.893 540.523 233.227 540.523 234.72C540.523 236.24 540.829 237.587 541.442 238.76C542.056 239.933 542.909 240.84 544.003 241.48C545.123 242.12 546.403 242.44 547.843 242.44ZM562.972 245V224.48H565.132L565.972 227.6C566.665 226.48 567.545 225.613 568.612 225C569.705 224.387 570.932 224.08 572.292 224.08C573.785 224.08 575.105 224.44 576.252 225.16C577.425 225.853 578.332 226.84 578.972 228.12C579.639 229.4 579.972 230.84 579.972 232.44V245H576.772V232.6C576.772 230.947 576.305 229.6 575.372 228.56C574.439 227.52 573.225 227 571.732 227C570.719 227 569.785 227.24 568.932 227.72C568.079 228.2 567.399 228.867 566.892 229.72C566.412 230.573 566.172 231.533 566.172 232.6V245H562.972ZM593.115 224.08C595.568 224.08 597.501 224.907 598.915 226.56C600.355 228.187 601.075 230.507 601.075 233.52V245H598.915L598.035 241.76C596.408 244.187 594.141 245.4 591.235 245.4C589.155 245.4 587.448 244.8 586.115 243.6C584.808 242.4 584.155 240.853 584.155 238.96C584.155 237.013 584.915 235.467 586.435 234.32C587.981 233.147 590.195 232.56 593.075 232.56H597.875C597.768 230.693 597.288 229.28 596.435 228.32C595.581 227.333 594.435 226.84 592.995 226.84C591.955 226.84 591.008 227.08 590.155 227.56C589.328 228.04 588.688 228.707 588.235 229.56L585.235 229.08C585.821 227.533 586.821 226.32 588.235 225.44C589.675 224.533 591.301 224.08 593.115 224.08ZM591.835 242.64C593.621 242.64 595.075 242.053 596.195 240.88C597.315 239.707 597.875 238.027 597.875 235.84V235.32H593.115C589.301 235.32 587.395 236.507 587.395 238.88C587.395 240.027 587.795 240.947 588.595 241.64C589.395 242.307 590.475 242.64 591.835 242.64ZM609.888 245H606.688V216.8H609.888V245ZM619.106 245H615.906V224.48H619.106V245ZM617.546 220.84C616.906 220.84 616.373 220.64 615.946 220.24C615.546 219.84 615.346 219.333 615.346 218.72C615.346 218.107 615.546 217.6 615.946 217.2C616.373 216.773 616.906 216.56 617.546 216.56C618.16 216.56 618.666 216.773 619.066 217.2C619.466 217.6 619.666 218.107 619.666 218.72C619.666 219.333 619.466 219.84 619.066 220.24C618.666 220.64 618.16 220.84 617.546 220.84ZM636.365 242.12L636.085 245H632.685C630.658 245 629.098 244.48 628.005 243.44C626.938 242.4 626.405 240.907 626.405 238.96V227.36H622.725V224.48H626.405L627.445 218.48H629.605V224.48H636.085V227.36H629.605V238.96C629.605 241.067 630.632 242.12 632.685 242.12H636.365ZM654.564 224.48H657.924L649.204 248.68C648.617 250.28 647.844 251.427 646.884 252.12C645.951 252.84 644.697 253.2 643.124 253.2H640.164L639.884 250.28H643.284C644.084 250.28 644.697 250.107 645.124 249.76C645.577 249.44 645.951 248.867 646.244 248.04L646.884 246.2L637.764 224.48H641.204L648.164 241.4H648.684L654.564 224.48ZM677.28 245.4C675.067 245.4 673.2 244.907 671.68 243.92C670.16 242.907 669.174 241.52 668.72 239.76L671.72 239.28C672.147 240.32 672.84 241.133 673.8 241.72C674.76 242.28 675.947 242.56 677.36 242.56C678.64 242.56 679.707 242.32 680.56 241.84C681.44 241.333 681.88 240.587 681.88 239.6C681.88 238.72 681.48 238.053 680.68 237.6C679.88 237.12 678.56 236.6 676.72 236.04C675.254 235.613 674.04 235.187 673.08 234.76C672.12 234.307 671.307 233.68 670.64 232.88C669.974 232.08 669.64 231.053 669.64 229.8C669.64 228.067 670.32 226.68 671.68 225.64C673.067 224.6 674.814 224.08 676.92 224.08C678.84 224.08 680.507 224.56 681.92 225.52C683.334 226.453 684.347 227.747 684.96 229.4L682 229.88C680.96 227.907 679.294 226.92 677 226.92C675.854 226.92 674.88 227.16 674.08 227.64C673.307 228.093 672.92 228.773 672.92 229.68C672.92 230.56 673.32 231.253 674.12 231.76C674.947 232.24 676.2 232.72 677.88 233.2C679.427 233.653 680.694 234.12 681.68 234.6C682.694 235.08 683.52 235.72 684.16 236.52C684.827 237.293 685.16 238.28 685.16 239.48C685.16 240.6 684.84 241.613 684.2 242.52C683.56 243.4 682.64 244.107 681.44 244.64C680.267 245.147 678.88 245.4 677.28 245.4ZM693.169 245H689.969V224.48H693.169V245ZM691.609 220.84C690.969 220.84 690.435 220.64 690.009 220.24C689.609 219.84 689.409 219.333 689.409 218.72C689.409 218.107 689.609 217.6 690.009 217.2C690.435 216.773 690.969 216.56 691.609 216.56C692.222 216.56 692.729 216.773 693.129 217.2C693.529 217.6 693.729 218.107 693.729 218.72C693.729 219.333 693.529 219.84 693.129 220.24C692.729 220.64 692.222 220.84 691.609 220.84ZM698.988 245V224.48H701.148L701.988 227.6C702.681 226.48 703.561 225.613 704.628 225C705.721 224.387 706.948 224.08 708.308 224.08C709.801 224.08 711.121 224.44 712.268 225.16C713.441 225.853 714.348 226.84 714.988 228.12C715.654 229.4 715.988 230.84 715.988 232.44V245H712.788V232.6C712.788 230.947 712.321 229.6 711.388 228.56C710.454 227.52 709.241 227 707.748 227C706.734 227 705.801 227.24 704.948 227.72C704.094 228.2 703.414 228.867 702.908 229.72C702.428 230.573 702.188 231.533 702.188 232.6V245H698.988ZM730.73 245.4C728.677 245.4 726.85 244.947 725.25 244.04C723.65 243.133 722.397 241.867 721.49 240.24C720.61 238.613 720.17 236.773 720.17 234.72C720.17 232.667 720.61 230.84 721.49 229.24C722.397 227.613 723.65 226.347 725.25 225.44C726.877 224.533 728.704 224.08 730.73 224.08C732.837 224.08 734.744 224.587 736.45 225.6C738.157 226.587 739.41 228.013 740.21 229.88L737.17 230.4C736.664 229.387 735.85 228.573 734.73 227.96C733.61 227.32 732.344 227 730.93 227C729.49 227 728.21 227.32 727.09 227.96C725.97 228.6 725.09 229.507 724.45 230.68C723.837 231.853 723.53 233.2 723.53 234.72C723.53 237.04 724.21 238.907 725.57 240.32C726.93 241.733 728.717 242.44 730.93 242.44C732.424 242.44 733.744 242.107 734.89 241.44C736.064 240.747 736.89 239.867 737.37 238.8L740.37 239.32C739.597 241.267 738.33 242.773 736.57 243.84C734.837 244.88 732.89 245.4 730.73 245.4ZM763.548 234.68C763.548 235.027 763.534 235.36 763.508 235.68H746.148C746.334 237.733 747.094 239.373 748.428 240.6C749.761 241.827 751.454 242.44 753.508 242.44C754.948 242.44 756.228 242.147 757.348 241.56C758.468 240.973 759.294 240.2 759.828 239.24L762.828 239.72C762.001 241.56 760.734 242.973 759.028 243.96C757.321 244.92 755.428 245.4 753.348 245.4C751.294 245.4 749.468 244.947 747.868 244.04C746.268 243.133 745.014 241.867 744.108 240.24C743.228 238.613 742.788 236.773 742.788 234.72C742.788 232.667 743.228 230.84 744.108 229.24C744.988 227.613 746.214 226.347 747.788 225.44C749.361 224.533 751.148 224.08 753.148 224.08C755.148 224.08 756.934 224.533 758.508 225.44C760.081 226.347 761.308 227.613 762.188 229.24C763.094 230.84 763.548 232.653 763.548 234.68ZM753.148 226.96C751.388 226.96 749.881 227.507 748.628 228.6C747.401 229.667 746.614 231.107 746.268 232.92H760.068C759.748 231.133 758.961 229.693 757.708 228.6C756.481 227.507 754.961 226.96 753.148 226.96ZM776.392 245V240.84L786.952 230.92C788.152 229.773 789.032 228.733 789.592 227.8C790.152 226.84 790.432 225.787 790.432 224.64C790.432 223.12 789.965 221.893 789.032 220.96C788.098 220 786.872 219.52 785.352 219.52C783.858 219.52 782.605 220 781.592 220.96C780.605 221.893 779.845 223.12 779.312 224.64L776.152 224.12C776.818 221.8 777.952 219.933 779.552 218.52C781.152 217.107 783.125 216.4 785.472 216.4C787.125 216.4 788.592 216.76 789.872 217.48C791.178 218.173 792.192 219.147 792.912 220.4C793.632 221.627 793.992 223.027 793.992 224.6C793.992 226.253 793.592 227.72 792.792 229C791.992 230.28 790.725 231.72 788.992 233.32L780.552 241.28V241.8L794.192 241.68V245H776.392ZM808.868 245.32C806.788 245.32 804.934 244.72 803.308 243.52C801.681 242.293 800.414 240.6 799.508 238.44C798.628 236.253 798.188 233.747 798.188 230.92C798.188 228.093 798.628 225.6 799.508 223.44C800.414 221.253 801.681 219.56 803.308 218.36C804.934 217.133 806.788 216.52 808.868 216.52C810.974 216.52 812.828 217.133 814.428 218.36C816.054 219.56 817.321 221.253 818.227 223.44C819.134 225.6 819.588 228.093 819.588 230.92C819.588 233.747 819.134 236.253 818.227 238.44C817.321 240.6 816.054 242.293 814.428 243.52C812.828 244.72 810.974 245.32 808.868 245.32ZM808.868 242.16C810.281 242.16 811.534 241.693 812.628 240.76C813.721 239.827 814.561 238.52 815.148 236.84C815.734 235.133 816.028 233.16 816.028 230.92C816.028 228.68 815.734 226.707 815.148 225C814.561 223.293 813.721 221.973 812.628 221.04C811.534 220.107 810.281 219.64 808.868 219.64C807.454 219.64 806.201 220.107 805.108 221.04C804.041 221.973 803.214 223.293 802.628 225C802.041 226.707 801.748 228.68 801.748 230.92C801.748 233.16 802.041 235.133 802.628 236.84C803.214 238.52 804.041 239.827 805.108 240.76C806.201 241.693 807.454 242.16 808.868 242.16ZM823.618 245V240.84L834.178 230.92C835.378 229.773 836.258 228.733 836.818 227.8C837.378 226.84 837.658 225.787 837.658 224.64C837.658 223.12 837.191 221.893 836.258 220.96C835.325 220 834.098 219.52 832.578 219.52C831.085 219.52 829.831 220 828.818 220.96C827.831 221.893 827.071 223.12 826.538 224.64L823.378 224.12C824.045 221.8 825.178 219.933 826.778 218.52C828.378 217.107 830.351 216.4 832.698 216.4C834.351 216.4 835.818 216.76 837.098 217.48C838.405 218.173 839.418 219.147 840.138 220.4C840.858 221.627 841.218 223.027 841.218 224.6C841.218 226.253 840.818 227.72 840.018 229C839.218 230.28 837.951 231.72 836.218 233.32L827.778 241.28V241.8L841.418 241.68V245H823.618ZM850.134 245V223.8H844.614V220.68H848.254C848.841 220.68 849.294 220.52 849.614 220.2C849.961 219.853 850.134 219.387 850.134 218.8V216.8H853.534V245H850.134ZM862.436 245.4C861.822 245.4 861.316 245.2 860.916 244.8C860.516 244.373 860.316 243.853 860.316 243.24C860.316 242.653 860.516 242.16 860.916 241.76C861.316 241.333 861.822 241.12 862.436 241.12C863.049 241.12 863.569 241.333 863.996 241.76C864.422 242.16 864.636 242.653 864.636 243.24C864.636 243.853 864.422 244.373 863.996 244.8C863.569 245.2 863.049 245.4 862.436 245.4Z" fill="#D8D8D8"/>
<defs>
<linearGradient id="paint0_linear_54_52" x1="69.375" y1="85.7467" x2="247.004" y2="265.872" gradientUnits="userSpaceOnUse">
<stop stop-color="#8BCEFF"/>
<stop offset="1" stop-color="#CE45FF"/>
</linearGradient>
<linearGradient id="paint1_linear_54_52" x1="110.722" y1="126.55" x2="114.606" y2="153.732" gradientUnits="userSpaceOnUse">
<stop stop-color="#8BCEFF"/>
<stop offset="1" stop-color="#CE45FF"/>
</linearGradient>
<linearGradient id="paint2_linear_54_52" x1="110.722" y1="168.038" x2="114.601" y2="195.202" gradientUnits="userSpaceOnUse">
<stop stop-color="#8BCEFF"/>
<stop offset="1" stop-color="#CE45FF"/>
</linearGradient>
<linearGradient id="paint3_linear_54_52" x1="110.654" y1="209.525" x2="117.162" y2="235.601" gradientUnits="userSpaceOnUse">
<stop stop-color="#8BCEFF"/>
<stop offset="1" stop-color="#CE45FF"/>
</linearGradient>
</defs>
</svg>
