<svg width="1000" height="350" viewBox="0 0 1000 350" fill="none" xmlns="http://www.w3.org/2000/svg">
<rect width="1000" height="350" fill="#0D1117"/>
<path d="M111.311 264.993C90.2284 264.988 72.5951 249.623 69.4828 229.004C69.1703 226.938 69.0141 223.82 69.0141 219.648C69.0141 190.43 69.0094 161.214 69 132C69 127.522 69.0969 124.398 69.2906 122.63C71.4139 103.06 86.8864 87.4374 106.516 85.2859C108.241 85.0953 111.363 85 115.882 85C145.099 85.0062 174.314 85.0078 203.528 85.0047C207.674 85.0047 210.793 85.1578 212.883 85.464C231.323 88.1593 245.952 102.723 248.567 121.238C248.852 123.25 248.994 126.367 248.994 130.589C249 155.86 249.002 181.132 248.998 206.406C248.998 210.54 248.833 213.657 248.502 215.757C247.239 223.713 243.941 230.669 238.607 236.625C238.548 236.694 236.348 238.911 232.007 243.277C228.77 246.533 225.52 249.781 222.258 253.022C215.893 259.34 208.392 263.171 199.755 264.515C197.708 264.83 194.594 264.99 190.413 264.993C164.046 265.002 137.679 265.002 111.311 264.993ZM83.671 228.277C86.3943 241.87 97.9717 250.922 111.668 250.931C136.522 250.947 161.387 250.945 186.26 250.926C186.429 250.926 186.515 250.842 186.518 250.673C186.533 245.252 186.538 239.831 186.532 234.413C186.529 230.138 186.723 227.024 187.113 225.071C189.255 214.393 197.683 205.647 208.398 203.233C210.385 202.786 213.494 202.558 217.725 202.549C223.35 202.536 229 202.53 234.674 202.53C234.846 202.53 234.932 202.444 234.932 202.272C234.938 177.517 234.943 152.763 234.946 128.011C234.946 111.685 222.694 99.0198 206.345 99.0291C175.725 99.0479 145.103 99.0604 114.48 99.0666C110.293 99.0698 107.184 99.2948 105.152 99.7416C91.9533 102.662 83.0523 114.179 83.0663 127.659C83.0851 144.131 83.082 174.559 83.057 218.945C83.057 223.116 83.2616 226.227 83.671 228.277ZM200.865 249.89C205.543 248.69 209.377 245.972 212.78 242.62C220.924 234.599 226.211 229.291 228.642 226.698C231.007 224.173 232.743 220.884 233.849 216.831C233.893 216.675 233.834 216.596 233.671 216.596C227.865 216.584 222.058 216.579 216.249 216.582C213.971 216.585 212.154 216.79 210.798 217.196C205.826 218.687 202.617 221.923 201.17 226.904C200.764 228.294 200.564 230.194 200.57 232.604C200.589 238.285 200.595 243.975 200.589 249.675C200.589 249.865 200.681 249.937 200.865 249.89Z" fill="url(#paint0_linear_54_52)"/>
<path d="M200.575 126.492H117.433C113.615 126.492 110.52 129.587 110.52 133.406V133.631C110.52 137.449 113.615 140.544 117.433 140.544H200.575C204.393 140.544 207.489 137.449 207.489 133.631V133.406C207.489 129.587 204.393 126.492 200.575 126.492Z" fill="url(#paint1_linear_54_52)"/>
<path d="M200.575 167.98H117.433C113.615 167.98 110.52 171.075 110.52 174.893V175.109C110.52 178.927 113.615 182.022 117.433 182.022H200.575C204.393 182.022 207.489 178.927 207.489 175.109V174.893C207.489 171.075 204.393 167.98 200.575 167.98Z" fill="url(#paint2_linear_54_52)"/>
<path d="M159.154 209.467H117.372C113.598 209.467 110.538 212.527 110.538 216.301V216.667C110.538 220.441 113.598 223.501 117.372 223.501H159.154C162.928 223.501 165.988 220.441 165.988 216.667V216.301C165.988 212.527 162.928 209.467 159.154 209.467Z" fill="url(#paint3_linear_54_52)"/>
<path d="M321.44 191H306.8L292.8 134.6H302.72L314 181.08H315.28L327.2 134.6H337.76L349.12 181.08H350.4L362.64 134.6H372.4L357.44 191H342.64L332.96 150.36H331.68L321.44 191ZM378.772 191V134.6H387.972V154.84C389.305 152.867 391.039 151.347 393.172 150.28C395.305 149.16 397.572 148.6 399.972 148.6C402.959 148.6 405.652 149.347 408.052 150.84C410.452 152.333 412.345 154.387 413.732 157C415.119 159.613 415.812 162.573 415.812 165.88V191H406.612V166.92C406.612 163.933 405.759 161.507 404.052 159.64C402.345 157.773 400.159 156.84 397.492 156.84C394.719 156.84 392.425 157.8 390.612 159.72C388.852 161.587 387.972 163.987 387.972 166.92V191H378.772ZM435.394 191H426.194V149.4H435.394V191ZM430.834 143.48C429.127 143.48 427.74 142.973 426.674 141.96C425.607 140.893 425.074 139.533 425.074 137.88C425.074 136.227 425.607 134.867 426.674 133.8C427.794 132.733 429.18 132.2 430.834 132.2C432.487 132.2 433.847 132.733 434.914 133.8C435.98 134.867 436.514 136.227 436.514 137.88C436.514 139.533 435.98 140.893 434.914 141.96C433.847 142.973 432.487 143.48 430.834 143.48ZM470.984 183L470.184 191H462.424C457.891 191 454.451 189.933 452.104 187.8C449.758 185.613 448.584 182.467 448.584 178.36V157.4H441.784V149.4H448.584L450.904 137.4H457.784V149.4H470.184V157.4H457.784V178.36C457.784 181.453 459.331 183 462.424 183H470.984ZM518.234 169.72C518.234 170.52 518.181 171.507 518.074 172.68H484.634C485.061 175.933 486.394 178.547 488.634 180.52C490.874 182.44 493.728 183.4 497.194 183.4C499.541 183.4 501.648 182.947 503.514 182.04C505.434 181.133 506.901 179.907 507.914 178.36L516.554 179.8C515.061 183.64 512.474 186.6 508.794 188.68C505.168 190.76 501.114 191.8 496.634 191.8C492.474 191.8 488.741 190.893 485.434 189.08C482.181 187.213 479.621 184.653 477.754 181.4C475.941 178.093 475.034 174.36 475.034 170.2C475.034 166.04 475.941 162.333 477.754 159.08C479.621 155.773 482.181 153.213 485.434 151.4C488.741 149.533 492.474 148.6 496.634 148.6C500.794 148.6 504.501 149.533 507.754 151.4C511.061 153.213 513.621 155.747 515.434 159C517.301 162.2 518.234 165.773 518.234 169.72ZM496.634 156.6C493.861 156.6 491.434 157.4 489.354 159C487.328 160.6 485.941 162.76 485.194 165.48H508.234C507.434 162.813 505.994 160.68 503.914 159.08C501.888 157.427 499.461 156.6 496.634 156.6ZM535.003 191H525.803V134.6H535.003V191ZM555.394 191H546.194V149.4H555.394V191ZM550.834 143.48C549.127 143.48 547.74 142.973 546.674 141.96C545.607 140.893 545.074 139.533 545.074 137.88C545.074 136.227 545.607 134.867 546.674 133.8C547.794 132.733 549.18 132.2 550.834 132.2C552.487 132.2 553.847 132.733 554.914 133.8C555.98 134.867 556.514 136.227 556.514 137.88C556.514 139.533 555.98 140.893 554.914 141.96C553.847 142.973 552.487 143.48 550.834 143.48ZM581.144 191.8C576.451 191.8 572.531 190.707 569.384 188.52C566.291 186.28 564.291 183.213 563.384 179.32L572.264 177.8C572.958 179.773 574.131 181.293 575.784 182.36C577.491 183.427 579.518 183.96 581.864 183.96C583.891 183.96 585.598 183.587 586.984 182.84C588.371 182.093 589.064 180.947 589.064 179.4C589.064 177.96 588.344 176.867 586.904 176.12C585.464 175.32 583.251 174.52 580.264 173.72C577.278 172.867 574.798 172.013 572.824 171.16C570.851 170.307 569.144 169.053 567.704 167.4C566.318 165.747 565.624 163.56 565.624 160.84C565.624 156.893 567.144 153.88 570.184 151.8C573.224 149.667 577.011 148.6 581.544 148.6C585.651 148.6 589.198 149.667 592.184 151.8C595.171 153.88 597.251 156.76 598.424 160.44L589.864 161.88C589.118 160.12 588.024 158.787 586.584 157.88C585.198 156.92 583.544 156.44 581.624 156.44C579.811 156.44 578.264 156.813 576.984 157.56C575.758 158.307 575.144 159.32 575.144 160.6C575.144 162.093 575.891 163.267 577.384 164.12C578.878 164.92 581.171 165.747 584.264 166.6C587.144 167.4 589.544 168.253 591.464 169.16C593.438 170.013 595.091 171.267 596.424 172.92C597.811 174.52 598.504 176.6 598.504 179.16C598.504 181.507 597.864 183.64 596.584 185.56C595.304 187.427 593.358 188.947 590.744 190.12C588.184 191.24 584.984 191.8 581.144 191.8ZM631.688 183L630.888 191H623.128C618.594 191 615.154 189.933 612.808 187.8C610.461 185.613 609.288 182.467 609.288 178.36V157.4H602.488V149.4H609.288L611.608 137.4H618.488V149.4H630.888V157.4H618.488V178.36C618.488 181.453 620.034 183 623.128 183H631.688ZM671.959 162.04C674.999 162.947 677.372 164.573 679.079 166.92C680.839 169.213 681.719 171.987 681.719 175.24C681.719 178.333 680.945 181.08 679.399 183.48C677.852 185.827 675.692 187.667 672.919 189C670.145 190.333 666.945 191 663.319 191H639.719V134.6H661.719C665.292 134.6 668.465 135.267 671.239 136.6C674.012 137.88 676.172 139.693 677.719 142.04C679.265 144.387 680.039 147.027 680.039 149.96C680.039 152.787 679.319 155.267 677.879 157.4C676.439 159.533 674.465 161.08 671.959 162.04ZM649.319 143V158.44H661.719C664.279 158.44 666.359 157.747 667.959 156.36C669.559 154.92 670.359 153.053 670.359 150.76C670.359 148.467 669.559 146.6 667.959 145.16C666.359 143.72 664.279 143 661.719 143H649.319ZM663.319 182.6C665.825 182.6 667.879 181.88 669.479 180.44C671.079 178.947 671.879 177.027 671.879 174.68C671.879 172.387 671.079 170.52 669.479 169.08C667.879 167.587 665.825 166.84 663.319 166.84H649.319V182.6H663.319ZM720.081 149.4H729.441L712.401 196.2C710.961 200.147 709.095 203 706.801 204.76C704.561 206.52 701.548 207.4 697.761 207.4H691.441L690.641 199H698.401C699.948 199 701.121 198.653 701.921 197.96C702.775 197.32 703.495 196.173 704.081 194.52L704.561 193.24L686.081 149.4H695.921L708.161 179.4H709.441L720.081 149.4ZM760.663 191H751.062V143.4H731.863V134.6H779.863V143.4H760.663V191ZM795.472 191H786.272V149.4H795.472V191ZM790.912 143.48C789.205 143.48 787.819 142.973 786.752 141.96C785.685 140.893 785.152 139.533 785.152 137.88C785.152 136.227 785.685 134.867 786.752 133.8C787.872 132.733 789.259 132.2 790.912 132.2C792.565 132.2 793.925 132.733 794.992 133.8C796.059 134.867 796.592 136.227 796.592 137.88C796.592 139.533 796.059 140.893 794.992 141.96C793.925 142.973 792.565 143.48 790.912 143.48ZM806.263 191V149.4H813.143L814.823 155.32C815.943 153.347 817.489 151.747 819.463 150.52C821.436 149.24 823.809 148.6 826.583 148.6C829.356 148.6 831.836 149.267 834.023 150.6C836.209 151.933 837.836 153.773 838.903 156.12C839.916 154.04 841.516 152.28 843.703 150.84C845.943 149.347 848.583 148.6 851.623 148.6C854.503 148.6 857.063 149.347 859.303 150.84C861.596 152.28 863.356 154.307 864.583 156.92C865.863 159.48 866.503 162.413 866.503 165.72V191H857.303V166.6C857.303 163.72 856.556 161.373 855.063 159.56C853.569 157.747 851.623 156.84 849.223 156.84C846.823 156.84 844.849 157.773 843.302 159.64C841.756 161.453 840.983 163.773 840.983 166.6V191H831.783V166.6C831.783 163.72 831.036 161.373 829.543 159.56C828.049 157.747 826.103 156.84 823.703 156.84C821.303 156.84 819.329 157.773 817.783 159.64C816.236 161.453 815.463 163.773 815.463 166.6V191H806.263ZM917.297 169.72C917.297 170.52 917.244 171.507 917.137 172.68H883.697C884.124 175.933 885.457 178.547 887.697 180.52C889.937 182.44 892.79 183.4 896.257 183.4C898.604 183.4 900.71 182.947 902.577 182.04C904.497 181.133 905.964 179.907 906.977 178.36L915.617 179.8C914.124 183.64 911.537 186.6 907.857 188.68C904.23 190.76 900.177 191.8 895.697 191.8C891.537 191.8 887.804 190.893 884.497 189.08C881.244 187.213 878.684 184.653 876.817 181.4C875.004 178.093 874.097 174.36 874.097 170.2C874.097 166.04 875.004 162.333 876.817 159.08C878.684 155.773 881.244 153.213 884.497 151.4C887.804 149.533 891.537 148.6 895.697 148.6C899.857 148.6 903.564 149.533 906.817 151.4C910.124 153.213 912.684 155.747 914.497 159C916.364 162.2 917.297 165.773 917.297 169.72ZM895.697 156.6C892.924 156.6 890.497 157.4 888.417 159C886.39 160.6 885.004 162.76 884.257 165.48H907.297C906.497 162.813 905.057 160.68 902.977 159.08C900.95 157.427 898.524 156.6 895.697 156.6Z" fill="white"/>
<path d="M303.96 245.4C301.747 245.4 299.88 244.907 298.36 243.92C296.84 242.907 295.853 241.52 295.4 239.76L298.4 239.28C298.827 240.32 299.52 241.133 300.48 241.72C301.44 242.28 302.627 242.56 304.04 242.56C305.32 242.56 306.387 242.32 307.24 241.84C308.12 241.333 308.56 240.587 308.56 239.6C308.56 238.72 308.16 238.053 307.36 237.6C306.56 237.12 305.24 236.6 303.4 236.04C301.933 235.613 300.72 235.187 299.76 234.76C298.8 234.307 297.987 233.68 297.32 232.88C296.653 232.08 296.32 231.053 296.32 229.8C296.32 228.067 297 226.68 298.36 225.64C299.747 224.6 301.493 224.08 303.6 224.08C305.52 224.08 307.187 224.56 308.6 225.52C310.013 226.453 311.027 227.747 311.64 229.4L308.68 229.88C307.64 227.907 305.973 226.92 303.68 226.92C302.533 226.92 301.56 227.16 300.76 227.64C299.987 228.093 299.6 228.773 299.6 229.68C299.6 230.56 300 231.253 300.8 231.76C301.627 232.24 302.88 232.72 304.56 233.2C306.107 233.653 307.373 234.12 308.36 234.6C309.373 235.08 310.2 235.72 310.84 236.52C311.507 237.293 311.84 238.28 311.84 239.48C311.84 240.6 311.52 241.613 310.88 242.52C310.24 243.4 309.32 244.107 308.12 244.64C306.947 245.147 305.56 245.4 303.96 245.4ZM319.848 245H316.648V224.48H319.848V245ZM318.288 220.84C317.648 220.84 317.115 220.64 316.688 220.24C316.288 219.84 316.088 219.333 316.088 218.72C316.088 218.107 316.288 217.6 316.688 217.2C317.115 216.773 317.648 216.56 318.288 216.56C318.902 216.56 319.408 216.773 319.808 217.2C320.208 217.6 320.408 218.107 320.408 218.72C320.408 219.333 320.208 219.84 319.808 220.24C319.408 220.64 318.902 220.84 318.288 220.84ZM325.667 245V224.48H327.827L328.667 227.6C329.361 226.48 330.241 225.613 331.307 225C332.401 224.387 333.627 224.08 334.987 224.08C336.481 224.08 337.801 224.44 338.947 225.16C340.121 225.853 341.027 226.84 341.667 228.12C342.334 229.4 342.667 230.84 342.667 232.44V245H339.467V232.6C339.467 230.947 339.001 229.6 338.067 228.56C337.134 227.52 335.921 227 334.427 227C333.414 227 332.481 227.24 331.627 227.72C330.774 228.2 330.094 228.867 329.587 229.72C329.107 230.573 328.867 231.533 328.867 232.6V245H325.667ZM357.41 245.4C355.357 245.4 353.53 244.947 351.93 244.04C350.33 243.133 349.077 241.867 348.17 240.24C347.29 238.613 346.85 236.773 346.85 234.72C346.85 232.667 347.29 230.84 348.17 229.24C349.077 227.613 350.33 226.347 351.93 225.44C353.557 224.533 355.383 224.08 357.41 224.08C359.517 224.08 361.423 224.587 363.13 225.6C364.837 226.587 366.09 228.013 366.89 229.88L363.85 230.4C363.343 229.387 362.53 228.573 361.41 227.96C360.29 227.32 359.023 227 357.61 227C356.17 227 354.89 227.32 353.77 227.96C352.65 228.6 351.77 229.507 351.13 230.68C350.517 231.853 350.21 233.2 350.21 234.72C350.21 237.04 350.89 238.907 352.25 240.32C353.61 241.733 355.397 242.44 357.61 242.44C359.103 242.44 360.423 242.107 361.57 241.44C362.743 240.747 363.57 239.867 364.05 238.8L367.05 239.32C366.277 241.267 365.01 242.773 363.25 243.84C361.517 244.88 359.57 245.4 357.41 245.4ZM390.227 234.68C390.227 235.027 390.214 235.36 390.187 235.68H372.827C373.014 237.733 373.774 239.373 375.107 240.6C376.441 241.827 378.134 242.44 380.187 242.44C381.627 242.44 382.907 242.147 384.027 241.56C385.147 240.973 385.974 240.2 386.507 239.24L389.507 239.72C388.681 241.56 387.414 242.973 385.707 243.96C384.001 244.92 382.107 245.4 380.027 245.4C377.974 245.4 376.147 244.947 374.547 244.04C372.947 243.133 371.694 241.867 370.787 240.24C369.907 238.613 369.467 236.773 369.467 234.72C369.467 232.667 369.907 230.84 370.787 229.24C371.667 227.613 372.894 226.347 374.467 225.44C376.041 224.533 377.827 224.08 379.827 224.08C381.827 224.08 383.614 224.533 385.187 225.44C386.761 226.347 387.987 227.613 388.867 229.24C389.774 230.84 390.227 232.653 390.227 234.68ZM379.827 226.96C378.067 226.96 376.561 227.507 375.307 228.6C374.081 229.667 373.294 231.107 372.947 232.92H386.747C386.427 231.133 385.641 229.693 384.387 228.6C383.161 227.507 381.641 226.96 379.827 226.96ZM403.071 245V240.84L413.631 230.92C414.831 229.773 415.711 228.733 416.271 227.8C416.831 226.84 417.111 225.787 417.111 224.64C417.111 223.12 416.645 221.893 415.711 220.96C414.778 220 413.551 219.52 412.031 219.52C410.538 219.52 409.285 220 408.271 220.96C407.285 221.893 406.525 223.12 405.991 224.64L402.831 224.12C403.498 221.8 404.631 219.933 406.231 218.52C407.831 217.107 409.805 216.4 412.151 216.4C413.805 216.4 415.271 216.76 416.551 217.48C417.858 218.173 418.871 219.147 419.591 220.4C420.311 221.627 420.671 223.027 420.671 224.6C420.671 226.253 420.271 227.72 419.471 229C418.671 230.28 417.405 231.72 415.671 233.32L407.231 241.28V241.8L420.871 241.68V245H403.071ZM435.547 245.32C433.467 245.32 431.614 244.72 429.987 243.52C428.361 242.293 427.094 240.6 426.187 238.44C425.307 236.253 424.867 233.747 424.867 230.92C424.867 228.093 425.307 225.6 426.187 223.44C427.094 221.253 428.361 219.56 429.987 218.36C431.614 217.133 433.467 216.52 435.547 216.52C437.654 216.52 439.507 217.133 441.107 218.36C442.734 219.56 444.001 221.253 444.907 223.44C445.814 225.6 446.267 228.093 446.267 230.92C446.267 233.747 445.814 236.253 444.907 238.44C444.001 240.6 442.734 242.293 441.107 243.52C439.507 244.72 437.654 245.32 435.547 245.32ZM435.547 242.16C436.961 242.16 438.214 241.693 439.307 240.76C440.401 239.827 441.241 238.52 441.827 236.84C442.414 235.133 442.707 233.16 442.707 230.92C442.707 228.68 442.414 226.707 441.827 225C441.241 223.293 440.401 221.973 439.307 221.04C438.214 220.107 436.961 219.64 435.547 219.64C434.134 219.64 432.881 220.107 431.787 221.04C430.721 221.973 429.894 223.293 429.307 225C428.721 226.707 428.427 228.68 428.427 230.92C428.427 233.16 428.721 235.133 429.307 236.84C429.894 238.52 430.721 239.827 431.787 240.76C432.881 241.693 434.134 242.16 435.547 242.16ZM450.298 245V240.84L460.858 230.92C462.058 229.773 462.938 228.733 463.498 227.8C464.058 226.84 464.338 225.787 464.338 224.64C464.338 223.12 463.871 221.893 462.938 220.96C462.004 220 460.778 219.52 459.258 219.52C457.764 219.52 456.511 220 455.498 220.96C454.511 221.893 453.751 223.12 453.218 224.64L450.058 224.12C450.724 221.8 451.858 219.933 453.458 218.52C455.058 217.107 457.031 216.4 459.378 216.4C461.031 216.4 462.498 216.76 463.778 217.48C465.084 218.173 466.098 219.147 466.818 220.4C467.538 221.627 467.898 223.027 467.898 224.6C467.898 226.253 467.498 227.72 466.698 229C465.898 230.28 464.631 231.72 462.898 233.32L454.458 241.28V241.8L468.098 241.68V245H450.298ZM476.814 245V223.8H471.294V220.68H474.934C475.52 220.68 475.974 220.52 476.294 220.2C476.64 219.853 476.814 219.387 476.814 218.8V216.8H480.214V245H476.814ZM515.045 235.2H495.805V232.48H515.045V235.2ZM536.616 245.4C534.403 245.4 532.536 244.907 531.016 243.92C529.496 242.907 528.51 241.52 528.056 239.76L531.056 239.28C531.483 240.32 532.176 241.133 533.136 241.72C534.096 242.28 535.283 242.56 536.696 242.56C537.976 242.56 539.043 242.32 539.896 241.84C540.776 241.333 541.216 240.587 541.216 239.6C541.216 238.72 540.816 238.053 540.016 237.6C539.216 237.12 537.896 236.6 536.056 236.04C534.59 235.613 533.376 235.187 532.416 234.76C531.456 234.307 530.643 233.68 529.976 232.88C529.31 232.08 528.976 231.053 528.976 229.8C528.976 228.067 529.656 226.68 531.016 225.64C532.403 224.6 534.15 224.08 536.256 224.08C538.176 224.08 539.843 224.56 541.256 225.52C542.67 226.453 543.683 227.747 544.296 229.4L541.336 229.88C540.296 227.907 538.63 226.92 536.336 226.92C535.19 226.92 534.216 227.16 533.416 227.64C532.643 228.093 532.256 228.773 532.256 229.68C532.256 230.56 532.656 231.253 533.456 231.76C534.283 232.24 535.536 232.72 537.216 233.2C538.763 233.653 540.03 234.12 541.016 234.6C542.03 235.08 542.856 235.72 543.496 236.52C544.163 237.293 544.496 238.28 544.496 239.48C544.496 240.6 544.176 241.613 543.536 242.52C542.896 243.4 541.976 244.107 540.776 244.64C539.603 245.147 538.216 245.4 536.616 245.4ZM560.545 242.12L560.265 245H556.865C554.838 245 553.278 244.48 552.185 243.44C551.118 242.4 550.585 240.907 550.585 238.96V227.36H546.905V224.48H550.585L551.625 218.48H553.785V224.48H560.265V227.36H553.785V238.96C553.785 241.067 554.811 242.12 556.865 242.12H560.545ZM567.934 245H564.734V224.48H567.934V245ZM566.374 220.84C565.734 220.84 565.201 220.64 564.774 220.24C564.374 219.84 564.174 219.333 564.174 218.72C564.174 218.107 564.374 217.6 564.774 217.2C565.201 216.773 565.734 216.56 566.374 216.56C566.988 216.56 567.494 216.773 567.894 217.2C568.294 217.6 568.494 218.107 568.494 218.72C568.494 219.333 568.294 219.84 567.894 220.24C567.494 220.64 566.988 220.84 566.374 220.84ZM577.153 245H573.953V216.8H577.153V245ZM586.372 245H583.172V216.8H586.372V245ZM601.8 245V224.48H603.96L604.76 227.4C605.373 226.36 606.173 225.547 607.16 224.96C608.147 224.373 609.293 224.08 610.6 224.08C612.013 224.08 613.253 224.427 614.32 225.12C615.387 225.813 616.2 226.787 616.76 228.04C617.373 226.813 618.213 225.853 619.28 225.16C620.373 224.44 621.64 224.08 623.08 224.08C625.24 224.08 626.973 224.84 628.28 226.36C629.587 227.88 630.24 229.893 630.24 232.4V245H627.04V232.56C627.04 230.827 626.613 229.453 625.76 228.44C624.933 227.427 623.84 226.92 622.48 226.92C621.067 226.92 619.893 227.44 618.96 228.48C618.053 229.493 617.6 230.853 617.6 232.56V245H614.4V232.56C614.4 230.827 613.973 229.453 613.12 228.44C612.293 227.427 611.2 226.92 609.84 226.92C608.453 226.92 607.293 227.44 606.36 228.48C605.453 229.493 605 230.853 605 232.56V245H601.8ZM643.388 224.08C645.841 224.08 647.775 224.907 649.188 226.56C650.628 228.187 651.348 230.507 651.348 233.52V245H649.188L648.308 241.76C646.681 244.187 644.415 245.4 641.508 245.4C639.428 245.4 637.721 244.8 636.388 243.6C635.081 242.4 634.428 240.853 634.428 238.96C634.428 237.013 635.188 235.467 636.708 234.32C638.255 233.147 640.468 232.56 643.348 232.56H648.148C648.041 230.693 647.561 229.28 646.708 228.32C645.855 227.333 644.708 226.84 643.268 226.84C642.228 226.84 641.281 227.08 640.428 227.56C639.601 228.04 638.961 228.707 638.508 229.56L635.508 229.08C636.095 227.533 637.095 226.32 638.508 225.44C639.948 224.533 641.575 224.08 643.388 224.08ZM642.108 242.64C643.895 242.64 645.348 242.053 646.468 240.88C647.588 239.707 648.148 238.027 648.148 235.84V235.32H643.388C639.575 235.32 637.668 236.507 637.668 238.88C637.668 240.027 638.068 240.947 638.868 241.64C639.668 242.307 640.748 242.64 642.108 242.64ZM660.161 245H656.961V224.48H660.161V245ZM658.601 220.84C657.961 220.84 657.428 220.64 657.001 220.24C656.601 219.84 656.401 219.333 656.401 218.72C656.401 218.107 656.601 217.6 657.001 217.2C657.428 216.773 657.961 216.56 658.601 216.56C659.214 216.56 659.721 216.773 660.121 217.2C660.521 217.6 660.721 218.107 660.721 218.72C660.721 219.333 660.521 219.84 660.121 220.24C659.721 220.64 659.214 220.84 658.601 220.84ZM665.98 245V224.48H668.14L668.98 227.6C669.673 226.48 670.553 225.613 671.62 225C672.713 224.387 673.94 224.08 675.3 224.08C676.793 224.08 678.113 224.44 679.26 225.16C680.433 225.853 681.34 226.84 681.98 228.12C682.646 229.4 682.98 230.84 682.98 232.44V245H679.78V232.6C679.78 230.947 679.313 229.6 678.38 228.56C677.446 227.52 676.233 227 674.74 227C673.726 227 672.793 227.24 671.94 227.72C671.086 228.2 670.406 228.867 669.9 229.72C669.42 230.573 669.18 231.533 669.18 232.6V245H665.98ZM699.803 242.12L699.523 245H696.122C694.096 245 692.536 244.48 691.442 243.44C690.376 242.4 689.843 240.907 689.843 238.96V227.36H686.163V224.48H689.843L690.883 218.48H693.043V224.48H699.523V227.36H693.043V238.96C693.043 241.067 694.069 242.12 696.122 242.12H699.803ZM711.552 224.08C714.006 224.08 715.939 224.907 717.352 226.56C718.792 228.187 719.512 230.507 719.512 233.52V245H717.352L716.472 241.76C714.846 244.187 712.579 245.4 709.672 245.4C707.592 245.4 705.886 244.8 704.552 243.6C703.246 242.4 702.592 240.853 702.592 238.96C702.592 237.013 703.352 235.467 704.872 234.32C706.419 233.147 708.632 232.56 711.512 232.56H716.312C716.206 230.693 715.726 229.28 714.872 228.32C714.019 227.333 712.872 226.84 711.432 226.84C710.392 226.84 709.446 227.08 708.592 227.56C707.766 228.04 707.126 228.707 706.672 229.56L703.672 229.08C704.259 227.533 705.259 226.32 706.672 225.44C708.112 224.533 709.739 224.08 711.552 224.08ZM710.272 242.64C712.059 242.64 713.512 242.053 714.632 240.88C715.752 239.707 716.312 238.027 716.312 235.84V235.32H711.552C707.739 235.32 705.832 236.507 705.832 238.88C705.832 240.027 706.232 240.947 707.032 241.64C707.832 242.307 708.912 242.64 710.272 242.64ZM728.325 245H725.125V224.48H728.325V245ZM726.765 220.84C726.125 220.84 725.592 220.64 725.165 220.24C724.765 219.84 724.565 219.333 724.565 218.72C724.565 218.107 724.765 217.6 725.165 217.2C725.592 216.773 726.125 216.56 726.765 216.56C727.378 216.56 727.885 216.773 728.285 217.2C728.685 217.6 728.885 218.107 728.885 218.72C728.885 219.333 728.685 219.84 728.285 220.24C727.885 220.64 727.378 220.84 726.765 220.84ZM734.144 245V224.48H736.304L737.144 227.6C737.837 226.48 738.717 225.613 739.784 225C740.877 224.387 742.104 224.08 743.464 224.08C744.957 224.08 746.277 224.44 747.424 225.16C748.597 225.853 749.504 226.84 750.144 228.12C750.81 229.4 751.144 230.84 751.144 232.44V245H747.944V232.6C747.944 230.947 747.477 229.6 746.544 228.56C745.61 227.52 744.397 227 742.904 227C741.89 227 740.957 227.24 740.104 227.72C739.25 228.2 738.57 228.867 738.064 229.72C737.584 230.573 737.344 231.533 737.344 232.6V245H734.144ZM776.087 234.68C776.087 235.027 776.073 235.36 776.047 235.68H758.687C758.873 237.733 759.633 239.373 760.967 240.6C762.3 241.827 763.993 242.44 766.047 242.44C767.487 242.44 768.767 242.147 769.887 241.56C771.007 240.973 771.833 240.2 772.367 239.24L775.367 239.72C774.54 241.56 773.273 242.973 771.567 243.96C769.86 244.92 767.967 245.4 765.887 245.4C763.833 245.4 762.007 244.947 760.407 244.04C758.807 243.133 757.553 241.867 756.647 240.24C755.767 238.613 755.327 236.773 755.327 234.72C755.327 232.667 755.767 230.84 756.647 229.24C757.527 227.613 758.753 226.347 760.327 225.44C761.9 224.533 763.687 224.08 765.687 224.08C767.687 224.08 769.473 224.533 771.047 225.44C772.62 226.347 773.847 227.613 774.727 229.24C775.633 230.84 776.087 232.653 776.087 234.68ZM765.687 226.96C763.927 226.96 762.42 227.507 761.167 228.6C759.94 229.667 759.153 231.107 758.807 232.92H772.607C772.287 231.133 771.5 229.693 770.247 228.6C769.02 227.507 767.5 226.96 765.687 226.96ZM788.921 245.4C787.001 245.4 785.268 244.947 783.721 244.04C782.201 243.133 781.015 241.867 780.161 240.24C779.308 238.613 778.881 236.773 778.881 234.72C778.881 232.667 779.308 230.84 780.161 229.24C781.015 227.613 782.201 226.347 783.721 225.44C785.268 224.533 787.001 224.08 788.921 224.08C790.681 224.08 792.201 224.44 793.481 225.16C794.788 225.88 795.868 226.787 796.721 227.88V216.8H799.921V245H797.761L796.801 241.48C795.948 242.627 794.868 243.573 793.561 244.32C792.255 245.04 790.708 245.4 788.921 245.4ZM789.481 242.48C790.895 242.48 792.148 242.16 793.241 241.52C794.335 240.853 795.188 239.933 795.801 238.76C796.415 237.587 796.721 236.24 796.721 234.72C796.721 233.227 796.415 231.893 795.801 230.72C795.188 229.547 794.335 228.64 793.241 228C792.148 227.333 790.895 227 789.481 227C788.068 227 786.801 227.333 785.681 228C784.588 228.64 783.735 229.547 783.121 230.72C782.535 231.893 782.241 233.227 782.241 234.72C782.241 236.24 782.535 237.587 783.121 238.76C783.735 239.933 784.588 240.853 785.681 241.52C786.801 242.16 788.068 242.48 789.481 242.48ZM807.826 245.4C807.213 245.4 806.706 245.2 806.306 244.8C805.906 244.373 805.706 243.853 805.706 243.24C805.706 242.653 805.906 242.16 806.306 241.76C806.706 241.333 807.213 241.12 807.826 241.12C808.44 241.12 808.96 241.333 809.386 241.76C809.813 242.16 810.026 242.653 810.026 243.24C810.026 243.853 809.813 244.373 809.386 244.8C808.96 245.2 808.44 245.4 807.826 245.4Z" fill="#D8D8D8"/>
<defs>
<linearGradient id="paint0_linear_54_52" x1="69.375" y1="85.7467" x2="247.004" y2="265.872" gradientUnits="userSpaceOnUse">
<stop stop-color="#8BCEFF"/>
<stop offset="1" stop-color="#CE45FF"/>
</linearGradient>
<linearGradient id="paint1_linear_54_52" x1="110.722" y1="126.55" x2="114.606" y2="153.732" gradientUnits="userSpaceOnUse">
<stop stop-color="#8BCEFF"/>
<stop offset="1" stop-color="#CE45FF"/>
</linearGradient>
<linearGradient id="paint2_linear_54_52" x1="110.722" y1="168.038" x2="114.601" y2="195.202" gradientUnits="userSpaceOnUse">
<stop stop-color="#8BCEFF"/>
<stop offset="1" stop-color="#CE45FF"/>
</linearGradient>
<linearGradient id="paint3_linear_54_52" x1="110.654" y1="209.525" x2="117.162" y2="235.601" gradientUnits="userSpaceOnUse">
<stop stop-color="#8BCEFF"/>
<stop offset="1" stop-color="#CE45FF"/>
</linearGradient>
</defs>
</svg>
