<svg width="1000" height="350" viewBox="0 0 1000 350" fill="none" xmlns="http://www.w3.org/2000/svg">
<rect width="1000" height="350" fill="#0D1117"/>
<path d="M111.311 264.993C90.2284 264.988 72.5951 249.623 69.4828 229.004C69.1703 226.938 69.0141 223.82 69.0141 219.648C69.0141 190.43 69.0094 161.214 69 132C69 127.522 69.0969 124.398 69.2906 122.63C71.4139 103.06 86.8864 87.4374 106.516 85.2859C108.241 85.0953 111.363 85 115.882 85C145.099 85.0062 174.314 85.0078 203.528 85.0047C207.674 85.0047 210.793 85.1578 212.883 85.464C231.323 88.1593 245.952 102.723 248.567 121.238C248.852 123.25 248.994 126.367 248.994 130.589C249 155.86 249.002 181.132 248.998 206.406C248.998 210.54 248.833 213.657 248.502 215.757C247.239 223.713 243.941 230.669 238.607 236.625C238.548 236.694 236.348 238.911 232.007 243.277C228.77 246.533 225.52 249.781 222.258 253.022C215.893 259.34 208.392 263.171 199.755 264.515C197.708 264.83 194.594 264.99 190.413 264.993C164.046 265.002 137.679 265.002 111.311 264.993ZM83.671 228.277C86.3943 241.87 97.9717 250.922 111.668 250.931C136.522 250.947 161.387 250.945 186.26 250.926C186.429 250.926 186.515 250.842 186.518 250.673C186.533 245.252 186.538 239.831 186.532 234.413C186.529 230.138 186.723 227.024 187.113 225.071C189.255 214.393 197.683 205.647 208.398 203.233C210.385 202.786 213.494 202.558 217.725 202.549C223.35 202.536 229 202.53 234.674 202.53C234.846 202.53 234.932 202.444 234.932 202.272C234.938 177.517 234.943 152.763 234.946 128.011C234.946 111.685 222.694 99.0198 206.345 99.0291C175.725 99.0479 145.103 99.0604 114.48 99.0666C110.293 99.0698 107.184 99.2948 105.152 99.7416C91.9533 102.662 83.0523 114.179 83.0663 127.659C83.0851 144.131 83.082 174.559 83.057 218.945C83.057 223.116 83.2616 226.227 83.671 228.277ZM200.865 249.89C205.543 248.69 209.377 245.972 212.78 242.62C220.924 234.599 226.211 229.291 228.642 226.698C231.007 224.173 232.743 220.884 233.849 216.831C233.893 216.675 233.834 216.596 233.671 216.596C227.865 216.584 222.058 216.579 216.249 216.582C213.971 216.585 212.154 216.79 210.798 217.196C205.826 218.687 202.617 221.923 201.17 226.904C200.764 228.294 200.564 230.194 200.57 232.604C200.589 238.285 200.595 243.975 200.589 249.675C200.589 249.865 200.681 249.937 200.865 249.89Z" fill="url(#paint0_linear_54_52)"/>
<path d="M200.575 126.492H117.433C113.615 126.492 110.52 129.587 110.52 133.406V133.631C110.52 137.449 113.615 140.544 117.433 140.544H200.575C204.393 140.544 207.489 137.449 207.489 133.631V133.406C207.489 129.587 204.393 126.492 200.575 126.492Z" fill="url(#paint1_linear_54_52)"/>
<path d="M200.575 167.98H117.433C113.615 167.98 110.52 171.075 110.52 174.893V175.109C110.52 178.927 113.615 182.022 117.433 182.022H200.575C204.393 182.022 207.489 178.927 207.489 175.109V174.893C207.489 171.075 204.393 167.98 200.575 167.98Z" fill="url(#paint2_linear_54_52)"/>
<path d="M159.154 209.467H117.372C113.598 209.467 110.538 212.527 110.538 216.301V216.667C110.538 220.441 113.598 223.501 117.372 223.501H159.154C162.928 223.501 165.988 220.441 165.988 216.667V216.301C165.988 212.527 162.928 209.467 159.154 209.467Z" fill="url(#paint3_linear_54_52)"/>
<path d="M321.44 191H306.8L292.8 134.6H302.72L314 181.08H315.28L327.2 134.6H337.76L349.12 181.08H350.4L362.64 134.6H372.4L357.44 191H342.64L332.96 150.36H331.68L321.44 191ZM378.772 191V134.6H387.972V154.84C389.305 152.867 391.039 151.347 393.172 150.28C395.305 149.16 397.572 148.6 399.972 148.6C402.959 148.6 405.652 149.347 408.052 150.84C410.452 152.333 412.345 154.387 413.732 157C415.119 159.613 415.812 162.573 415.812 165.88V191H406.612V166.92C406.612 163.933 405.759 161.507 404.052 159.64C402.345 157.773 400.159 156.84 397.492 156.84C394.719 156.84 392.425 157.8 390.612 159.72C388.852 161.587 387.972 163.987 387.972 166.92V191H378.772ZM435.394 191H426.194V149.4H435.394V191ZM430.834 143.48C429.127 143.48 427.74 142.973 426.674 141.96C425.607 140.893 425.074 139.533 425.074 137.88C425.074 136.227 425.607 134.867 426.674 133.8C427.794 132.733 429.18 132.2 430.834 132.2C432.487 132.2 433.847 132.733 434.914 133.8C435.98 134.867 436.514 136.227 436.514 137.88C436.514 139.533 435.98 140.893 434.914 141.96C433.847 142.973 432.487 143.48 430.834 143.48ZM470.984 183L470.184 191H462.424C457.891 191 454.451 189.933 452.104 187.8C449.758 185.613 448.584 182.467 448.584 178.36V157.4H441.784V149.4H448.584L450.904 137.4H457.784V149.4H470.184V157.4H457.784V178.36C457.784 181.453 459.331 183 462.424 183H470.984ZM518.234 169.72C518.234 170.52 518.181 171.507 518.074 172.68H484.634C485.061 175.933 486.394 178.547 488.634 180.52C490.874 182.44 493.728 183.4 497.194 183.4C499.541 183.4 501.648 182.947 503.514 182.04C505.434 181.133 506.901 179.907 507.914 178.36L516.554 179.8C515.061 183.64 512.474 186.6 508.794 188.68C505.168 190.76 501.114 191.8 496.634 191.8C492.474 191.8 488.741 190.893 485.434 189.08C482.181 187.213 479.621 184.653 477.754 181.4C475.941 178.093 475.034 174.36 475.034 170.2C475.034 166.04 475.941 162.333 477.754 159.08C479.621 155.773 482.181 153.213 485.434 151.4C488.741 149.533 492.474 148.6 496.634 148.6C500.794 148.6 504.501 149.533 507.754 151.4C511.061 153.213 513.621 155.747 515.434 159C517.301 162.2 518.234 165.773 518.234 169.72ZM496.634 156.6C493.861 156.6 491.434 157.4 489.354 159C487.328 160.6 485.941 162.76 485.194 165.48H508.234C507.434 162.813 505.994 160.68 503.914 159.08C501.888 157.427 499.461 156.6 496.634 156.6ZM535.003 191H525.803V134.6H535.003V191ZM555.394 191H546.194V149.4H555.394V191ZM550.834 143.48C549.127 143.48 547.74 142.973 546.674 141.96C545.607 140.893 545.074 139.533 545.074 137.88C545.074 136.227 545.607 134.867 546.674 133.8C547.794 132.733 549.18 132.2 550.834 132.2C552.487 132.2 553.847 132.733 554.914 133.8C555.98 134.867 556.514 136.227 556.514 137.88C556.514 139.533 555.98 140.893 554.914 141.96C553.847 142.973 552.487 143.48 550.834 143.48ZM581.144 191.8C576.451 191.8 572.531 190.707 569.384 188.52C566.291 186.28 564.291 183.213 563.384 179.32L572.264 177.8C572.958 179.773 574.131 181.293 575.784 182.36C577.491 183.427 579.518 183.96 581.864 183.96C583.891 183.96 585.598 183.587 586.984 182.84C588.371 182.093 589.064 180.947 589.064 179.4C589.064 177.96 588.344 176.867 586.904 176.12C585.464 175.32 583.251 174.52 580.264 173.72C577.278 172.867 574.798 172.013 572.824 171.16C570.851 170.307 569.144 169.053 567.704 167.4C566.318 165.747 565.624 163.56 565.624 160.84C565.624 156.893 567.144 153.88 570.184 151.8C573.224 149.667 577.011 148.6 581.544 148.6C585.651 148.6 589.198 149.667 592.184 151.8C595.171 153.88 597.251 156.76 598.424 160.44L589.864 161.88C589.118 160.12 588.024 158.787 586.584 157.88C585.198 156.92 583.544 156.44 581.624 156.44C579.811 156.44 578.264 156.813 576.984 157.56C575.758 158.307 575.144 159.32 575.144 160.6C575.144 162.093 575.891 163.267 577.384 164.12C578.878 164.92 581.171 165.747 584.264 166.6C587.144 167.4 589.544 168.253 591.464 169.16C593.438 170.013 595.091 171.267 596.424 172.92C597.811 174.52 598.504 176.6 598.504 179.16C598.504 181.507 597.864 183.64 596.584 185.56C595.304 187.427 593.358 188.947 590.744 190.12C588.184 191.24 584.984 191.8 581.144 191.8ZM631.688 183L630.888 191H623.128C618.594 191 615.154 189.933 612.808 187.8C610.461 185.613 609.288 182.467 609.288 178.36V157.4H602.488V149.4H609.288L611.608 137.4H618.488V149.4H630.888V157.4H618.488V178.36C618.488 181.453 620.034 183 623.128 183H631.688ZM671.959 162.04C674.999 162.947 677.372 164.573 679.079 166.92C680.839 169.213 681.719 171.987 681.719 175.24C681.719 178.333 680.945 181.08 679.399 183.48C677.852 185.827 675.692 187.667 672.919 189C670.145 190.333 666.945 191 663.319 191H639.719V134.6H661.719C665.292 134.6 668.465 135.267 671.239 136.6C674.012 137.88 676.172 139.693 677.719 142.04C679.265 144.387 680.039 147.027 680.039 149.96C680.039 152.787 679.319 155.267 677.879 157.4C676.439 159.533 674.465 161.08 671.959 162.04ZM649.319 143V158.44H661.719C664.279 158.44 666.359 157.747 667.959 156.36C669.559 154.92 670.359 153.053 670.359 150.76C670.359 148.467 669.559 146.6 667.959 145.16C666.359 143.72 664.279 143 661.719 143H649.319ZM663.319 182.6C665.825 182.6 667.879 181.88 669.479 180.44C671.079 178.947 671.879 177.027 671.879 174.68C671.879 172.387 671.079 170.52 669.479 169.08C667.879 167.587 665.825 166.84 663.319 166.84H649.319V182.6H663.319ZM720.081 149.4H729.441L712.401 196.2C710.961 200.147 709.095 203 706.801 204.76C704.561 206.52 701.548 207.4 697.761 207.4H691.441L690.641 199H698.401C699.948 199 701.121 198.653 701.921 197.96C702.775 197.32 703.495 196.173 704.081 194.52L704.561 193.24L686.081 149.4H695.921L708.161 179.4H709.441L720.081 149.4ZM760.663 191H751.062V143.4H731.863V134.6H779.863V143.4H760.663V191ZM795.472 191H786.272V149.4H795.472V191ZM790.912 143.48C789.205 143.48 787.819 142.973 786.752 141.96C785.685 140.893 785.152 139.533 785.152 137.88C785.152 136.227 785.685 134.867 786.752 133.8C787.872 132.733 789.259 132.2 790.912 132.2C792.565 132.2 793.925 132.733 794.992 133.8C796.059 134.867 796.592 136.227 796.592 137.88C796.592 139.533 796.059 140.893 794.992 141.96C793.925 142.973 792.565 143.48 790.912 143.48ZM806.263 191V149.4H813.143L814.823 155.32C815.943 153.347 817.489 151.747 819.463 150.52C821.436 149.24 823.809 148.6 826.583 148.6C829.356 148.6 831.836 149.267 834.023 150.6C836.209 151.933 837.836 153.773 838.903 156.12C839.916 154.04 841.516 152.28 843.703 150.84C845.943 149.347 848.583 148.6 851.623 148.6C854.503 148.6 857.063 149.347 859.303 150.84C861.596 152.28 863.356 154.307 864.583 156.92C865.863 159.48 866.503 162.413 866.503 165.72V191H857.303V166.6C857.303 163.72 856.556 161.373 855.063 159.56C853.569 157.747 851.623 156.84 849.223 156.84C846.823 156.84 844.849 157.773 843.302 159.64C841.756 161.453 840.983 163.773 840.983 166.6V191H831.783V166.6C831.783 163.72 831.036 161.373 829.543 159.56C828.049 157.747 826.103 156.84 823.703 156.84C821.303 156.84 819.329 157.773 817.783 159.64C816.236 161.453 815.463 163.773 815.463 166.6V191H806.263ZM917.297 169.72C917.297 170.52 917.244 171.507 917.137 172.68H883.697C884.124 175.933 885.457 178.547 887.697 180.52C889.937 182.44 892.79 183.4 896.257 183.4C898.604 183.4 900.71 182.947 902.577 182.04C904.497 181.133 905.964 179.907 906.977 178.36L915.617 179.8C914.124 183.64 911.537 186.6 907.857 188.68C904.23 190.76 900.177 191.8 895.697 191.8C891.537 191.8 887.804 190.893 884.497 189.08C881.244 187.213 878.684 184.653 876.817 181.4C875.004 178.093 874.097 174.36 874.097 170.2C874.097 166.04 875.004 162.333 876.817 159.08C878.684 155.773 881.244 153.213 884.497 151.4C887.804 149.533 891.537 148.6 895.697 148.6C899.857 148.6 903.564 149.533 906.817 151.4C910.124 153.213 912.684 155.747 914.497 159C916.364 162.2 917.297 165.773 917.297 169.72ZM895.697 156.6C892.924 156.6 890.497 157.4 888.417 159C886.39 160.6 885.004 162.76 884.257 165.48H907.297C906.497 162.813 905.057 160.68 902.977 159.08C900.95 157.427 898.524 156.6 895.697 156.6Z" fill="white"/>
<path d="M311.4 224.48H314.76L306.04 248.68C305.453 250.28 304.68 251.427 303.72 252.12C302.787 252.84 301.533 253.2 299.96 253.2H297L296.72 250.28H300.12C300.92 250.28 301.533 250.107 301.96 249.76C302.413 249.44 302.787 248.867 303.08 248.04L303.72 246.2L294.6 224.48H298.04L305 241.4H305.52L311.4 224.48ZM337.337 234.68C337.337 235.027 337.323 235.36 337.297 235.68H319.937C320.123 237.733 320.883 239.373 322.217 240.6C323.55 241.827 325.243 242.44 327.297 242.44C328.737 242.44 330.017 242.147 331.137 241.56C332.257 240.973 333.083 240.2 333.617 239.24L336.617 239.72C335.79 241.56 334.523 242.973 332.817 243.96C331.11 244.92 329.217 245.4 327.137 245.4C325.083 245.4 323.257 244.947 321.657 244.04C320.057 243.133 318.803 241.867 317.897 240.24C317.017 238.613 316.577 236.773 316.577 234.72C316.577 232.667 317.017 230.84 317.897 229.24C318.777 227.613 320.003 226.347 321.577 225.44C323.15 224.533 324.937 224.08 326.937 224.08C328.937 224.08 330.723 224.533 332.297 225.44C333.87 226.347 335.097 227.613 335.977 229.24C336.883 230.84 337.337 232.653 337.337 234.68ZM326.937 226.96C325.177 226.96 323.67 227.507 322.417 228.6C321.19 229.667 320.403 231.107 320.057 232.92H333.857C333.537 231.133 332.75 229.693 331.497 228.6C330.27 227.507 328.75 226.96 326.937 226.96ZM352.771 242.12L352.491 245H349.091C347.065 245 345.505 244.48 344.411 243.44C343.345 242.4 342.811 240.907 342.811 238.96V227.36H339.131V224.48H342.811L343.851 218.48H346.011V224.48H352.491V227.36H346.011V238.96C346.011 241.067 347.038 242.12 349.091 242.12H352.771ZM374.13 224.08C376.584 224.08 378.517 224.907 379.93 226.56C381.37 228.187 382.09 230.507 382.09 233.52V245H379.93L379.05 241.76C377.424 244.187 375.157 245.4 372.25 245.4C370.17 245.4 368.464 244.8 367.13 243.6C365.824 242.4 365.17 240.853 365.17 238.96C365.17 237.013 365.93 235.467 367.45 234.32C368.997 233.147 371.21 232.56 374.09 232.56H378.89C378.784 230.693 378.304 229.28 377.45 228.32C376.597 227.333 375.45 226.84 374.01 226.84C372.97 226.84 372.024 227.08 371.17 227.56C370.344 228.04 369.704 228.707 369.25 229.56L366.25 229.08C366.837 227.533 367.837 226.32 369.25 225.44C370.69 224.533 372.317 224.08 374.13 224.08ZM372.85 242.64C374.637 242.64 376.09 242.053 377.21 240.88C378.33 239.707 378.89 238.027 378.89 235.84V235.32H374.13C370.317 235.32 368.41 236.507 368.41 238.88C368.41 240.027 368.81 240.947 369.61 241.64C370.41 242.307 371.49 242.64 372.85 242.64ZM387.503 245V224.48H389.663L390.503 227.6C391.196 226.48 392.076 225.613 393.143 225C394.236 224.387 395.463 224.08 396.823 224.08C398.316 224.08 399.636 224.44 400.783 225.16C401.956 225.853 402.863 226.84 403.503 228.12C404.17 229.4 404.503 230.84 404.503 232.44V245H401.303V232.6C401.303 230.947 400.836 229.6 399.903 228.56C398.97 227.52 397.756 227 396.263 227C395.25 227 394.316 227.24 393.463 227.72C392.61 228.2 391.93 228.867 391.423 229.72C390.943 230.573 390.703 231.533 390.703 232.6V245H387.503ZM419.366 245.4C417.313 245.4 415.473 244.947 413.846 244.04C412.219 243.133 410.953 241.867 410.046 240.24C409.139 238.613 408.686 236.773 408.686 234.72C408.686 232.667 409.139 230.84 410.046 229.24C410.953 227.613 412.219 226.347 413.846 225.44C415.473 224.533 417.313 224.08 419.366 224.08C421.419 224.08 423.259 224.533 424.886 225.44C426.539 226.347 427.819 227.613 428.726 229.24C429.633 230.84 430.086 232.667 430.086 234.72C430.086 236.773 429.633 238.613 428.726 240.24C427.819 241.867 426.553 243.133 424.926 244.04C423.299 244.947 421.446 245.4 419.366 245.4ZM419.366 242.44C421.553 242.44 423.326 241.733 424.686 240.32C426.046 238.88 426.726 237.013 426.726 234.72C426.726 233.227 426.419 231.893 425.806 230.72C425.193 229.547 424.326 228.64 423.206 228C422.086 227.333 420.806 227 419.366 227C417.926 227 416.646 227.333 415.526 228C414.433 228.64 413.579 229.547 412.966 230.72C412.353 231.893 412.046 233.227 412.046 234.72C412.046 236.24 412.353 237.587 412.966 238.76C413.579 239.933 414.433 240.84 415.526 241.48C416.646 242.12 417.926 242.44 419.366 242.44ZM445.935 242.12L445.655 245H442.255C440.229 245 438.669 244.48 437.575 243.44C436.509 242.4 435.975 240.907 435.975 238.96V227.36H432.295V224.48H435.975L437.015 218.48H439.175V224.48H445.655V227.36H439.175V238.96C439.175 241.067 440.202 242.12 442.255 242.12H445.935ZM450.125 245V216.8H453.325V227.32C454.018 226.28 454.885 225.48 455.925 224.92C456.992 224.36 458.165 224.08 459.445 224.08C460.938 224.08 462.258 224.44 463.405 225.16C464.578 225.853 465.485 226.84 466.125 228.12C466.792 229.4 467.125 230.84 467.125 232.44V245H463.925V232.6C463.925 230.947 463.458 229.6 462.525 228.56C461.592 227.52 460.378 227 458.885 227C457.872 227 456.938 227.24 456.085 227.72C455.232 228.2 454.552 228.867 454.045 229.72C453.565 230.573 453.325 231.533 453.325 232.6V245H450.125ZM492.102 234.68C492.102 235.027 492.089 235.36 492.062 235.68H474.702C474.889 237.733 475.649 239.373 476.982 240.6C478.316 241.827 480.009 242.44 482.062 242.44C483.502 242.44 484.782 242.147 485.902 241.56C487.022 240.973 487.849 240.2 488.382 239.24L491.382 239.72C490.556 241.56 489.289 242.973 487.582 243.96C485.876 244.92 483.982 245.4 481.902 245.4C479.849 245.4 478.022 244.947 476.422 244.04C474.822 243.133 473.569 241.867 472.662 240.24C471.782 238.613 471.342 236.773 471.342 234.72C471.342 232.667 471.782 230.84 472.662 229.24C473.542 227.613 474.769 226.347 476.342 225.44C477.916 224.533 479.702 224.08 481.702 224.08C483.702 224.08 485.489 224.533 487.062 225.44C488.636 226.347 489.862 227.613 490.742 229.24C491.649 230.84 492.102 232.653 492.102 234.68ZM481.702 226.96C479.942 226.96 478.436 227.507 477.182 228.6C475.956 229.667 475.169 231.107 474.822 232.92H488.622C488.302 231.133 487.516 229.693 486.262 228.6C485.036 227.507 483.516 226.96 481.702 226.96ZM496.097 245V224.48H498.257L499.057 227.4C500.204 225.453 501.964 224.48 504.337 224.48H505.377L505.697 227.56H503.857C502.31 227.56 501.164 228.04 500.417 229C499.67 229.933 499.297 231.16 499.297 232.68V245H496.097ZM524.653 245H519.773L514.053 224.48H517.333L522.093 241.92H522.613L527.333 224.48H531.253L535.893 241.92H536.453L541.173 224.48H544.333L538.693 245H533.813L529.493 228.72H528.973L524.653 245ZM547.938 245V216.8H551.138V227.32C551.831 226.28 552.698 225.48 553.738 224.92C554.804 224.36 555.978 224.08 557.258 224.08C558.751 224.08 560.071 224.44 561.218 225.16C562.391 225.853 563.298 226.84 563.938 228.12C564.604 229.4 564.938 230.84 564.938 232.44V245H561.738V232.6C561.738 230.947 561.271 229.6 560.338 228.56C559.404 227.52 558.191 227 556.697 227C555.684 227 554.751 227.24 553.898 227.72C553.044 228.2 552.364 228.867 551.858 229.72C551.378 230.573 551.138 231.533 551.138 232.6V245H547.938ZM573.755 245H570.555V224.48H573.755V245ZM572.195 220.84C571.555 220.84 571.021 220.64 570.595 220.24C570.195 219.84 569.995 219.333 569.995 218.72C569.995 218.107 570.195 217.6 570.595 217.2C571.021 216.773 571.555 216.56 572.195 216.56C572.808 216.56 573.315 216.773 573.715 217.2C574.115 217.6 574.315 218.107 574.315 218.72C574.315 219.333 574.115 219.84 573.715 220.24C573.315 220.64 572.808 220.84 572.195 220.84ZM591.013 242.12L590.733 245H587.333C585.307 245 583.747 244.48 582.653 243.44C581.587 242.4 581.053 240.907 581.053 238.96V227.36H577.373V224.48H581.053L582.093 218.48H584.253V224.48H590.733V227.36H584.253V238.96C584.253 241.067 585.28 242.12 587.333 242.12H591.013ZM614.173 234.68C614.173 235.027 614.159 235.36 614.133 235.68H596.773C596.959 237.733 597.719 239.373 599.053 240.6C600.386 241.827 602.079 242.44 604.133 242.44C605.573 242.44 606.853 242.147 607.973 241.56C609.093 240.973 609.919 240.2 610.453 239.24L613.453 239.72C612.626 241.56 611.359 242.973 609.653 243.96C607.946 244.92 606.053 245.4 603.973 245.4C601.919 245.4 600.093 244.947 598.493 244.04C596.893 243.133 595.639 241.867 594.733 240.24C593.853 238.613 593.413 236.773 593.413 234.72C593.413 232.667 593.853 230.84 594.733 229.24C595.613 227.613 596.839 226.347 598.413 225.44C599.986 224.533 601.773 224.08 603.773 224.08C605.773 224.08 607.559 224.533 609.133 225.44C610.706 226.347 611.933 227.613 612.813 229.24C613.719 230.84 614.173 232.653 614.173 234.68ZM603.773 226.96C602.013 226.96 600.506 227.507 599.253 228.6C598.026 229.667 597.239 231.107 596.893 232.92H610.693C610.373 231.133 609.586 229.693 608.333 228.6C607.106 227.507 605.586 226.96 603.773 226.96ZM621.567 245H618.367V216.8H621.567V245ZM630.786 245H627.586V224.48H630.786V245ZM629.226 220.84C628.586 220.84 628.053 220.64 627.626 220.24C627.226 219.84 627.026 219.333 627.026 218.72C627.026 218.107 627.226 217.6 627.626 217.2C628.053 216.773 628.586 216.56 629.226 216.56C629.839 216.56 630.346 216.773 630.746 217.2C631.146 217.6 631.346 218.107 631.346 218.72C631.346 219.333 631.146 219.84 630.746 220.24C630.346 220.64 629.839 220.84 629.226 220.84ZM643.765 245.4C641.551 245.4 639.685 244.907 638.165 243.92C636.645 242.907 635.658 241.52 635.205 239.76L638.205 239.28C638.631 240.32 639.325 241.133 640.285 241.72C641.245 242.28 642.431 242.56 643.845 242.56C645.125 242.56 646.191 242.32 647.045 241.84C647.925 241.333 648.365 240.587 648.365 239.6C648.365 238.72 647.965 238.053 647.165 237.6C646.365 237.12 645.045 236.6 643.205 236.04C641.738 235.613 640.525 235.187 639.565 234.76C638.605 234.307 637.791 233.68 637.125 232.88C636.458 232.08 636.125 231.053 636.125 229.8C636.125 228.067 636.805 226.68 638.165 225.64C639.551 224.6 641.298 224.08 643.405 224.08C645.325 224.08 646.991 224.56 648.405 225.52C649.818 226.453 650.831 227.747 651.445 229.4L648.485 229.88C647.445 227.907 645.778 226.92 643.485 226.92C642.338 226.92 641.365 227.16 640.565 227.64C639.791 228.093 639.405 228.773 639.405 229.68C639.405 230.56 639.805 231.253 640.605 231.76C641.431 232.24 642.685 232.72 644.365 233.2C645.911 233.653 647.178 234.12 648.165 234.6C649.178 235.08 650.005 235.72 650.645 236.52C651.311 237.293 651.645 238.28 651.645 239.48C651.645 240.6 651.325 241.613 650.685 242.52C650.045 243.4 649.125 244.107 647.925 244.64C646.751 245.147 645.365 245.4 643.765 245.4ZM667.693 242.12L667.413 245H664.013C661.986 245 660.426 244.48 659.333 243.44C658.266 242.4 657.733 240.907 657.733 238.96V227.36H654.053V224.48H657.733L658.773 218.48H660.933V224.48H667.413V227.36H660.933V238.96C660.933 241.067 661.96 242.12 664.013 242.12H667.693Z" fill="#D8D8D8"/>
<defs>
<linearGradient id="paint0_linear_54_52" x1="69.375" y1="85.7467" x2="247.004" y2="265.872" gradientUnits="userSpaceOnUse">
<stop stop-color="#8BCEFF"/>
<stop offset="1" stop-color="#CE45FF"/>
</linearGradient>
<linearGradient id="paint1_linear_54_52" x1="110.722" y1="126.55" x2="114.606" y2="153.732" gradientUnits="userSpaceOnUse">
<stop stop-color="#8BCEFF"/>
<stop offset="1" stop-color="#CE45FF"/>
</linearGradient>
<linearGradient id="paint2_linear_54_52" x1="110.722" y1="168.038" x2="114.601" y2="195.202" gradientUnits="userSpaceOnUse">
<stop stop-color="#8BCEFF"/>
<stop offset="1" stop-color="#CE45FF"/>
</linearGradient>
<linearGradient id="paint3_linear_54_52" x1="110.654" y1="209.525" x2="117.162" y2="235.601" gradientUnits="userSpaceOnUse">
<stop stop-color="#8BCEFF"/>
<stop offset="1" stop-color="#CE45FF"/>
</linearGradient>
</defs>
</svg>
